<svg xmlns="http://www.w3.org/2000/svg" viewBox="0 0 512 512"><g fill="none" stroke-width="2"><path stroke="#d3e3f1" d="M175.66 76.78q-12.18 4.24-22.98 11.36" vector-effect="non-scaling-stroke"/><path stroke="#aac5dd" d="M152.68 88.14q-5.12.88-8.64 4.61" vector-effect="non-scaling-stroke"/><path stroke="#94b7da" d="m144.04 92.75-8.47 9.52q-.4.45.15.68.57.24 1.28-.24" vector-effect="non-scaling-stroke"/><path stroke="#d3e3f1" d="m137 102.71 4.28.69q.5.08.92.37l8.05 5.52" vector-effect="non-scaling-stroke"/><path stroke="#dfe9f1" d="m150.25 109.29-.04.71" vector-effect="non-scaling-stroke"/><path stroke="#c7dbeb" d="M150.21 110q-4.73-1.72-9.76-.93" vector-effect="non-scaling-stroke"/><path stroke="#9cbedf" d="M140.45 109.07q-11.55-7.48-22.6.3" vector-effect="non-scaling-stroke"/><path stroke="#869bb7" d="m117.85 109.37-2.81 4.38" vector-effect="non-scaling-stroke"/><path stroke="#81868c" d="M115.04 113.75q-1.19 2.12-1.24 4.42" vector-effect="non-scaling-stroke"/><path stroke="#869bb7" d="m113.8 118.17-7.83 17.21" vector-effect="non-scaling-stroke"/><path stroke="#8393a9" d="M105.97 135.38c.36 7.02-2.81 14.26 1.28 22.16" vector-effect="non-scaling-stroke"/><path stroke="#899fb9" d="M107.25 157.54q.43 2.4 1.79 4.46" vector-effect="non-scaling-stroke"/><path stroke="#83919d" d="M109.04 162q.36 3.06 2.19 5.56.3.41.27.93-.1 1.61 1.26 3.2" vector-effect="non-scaling-stroke"/><path stroke="#81868c" d="M112.76 171.69q2.42 4.71 6.16 9.3.41.49 1.04.58l4.31.54q.52.07.81-.37l3.79-5.87" vector-effect="non-scaling-stroke"/><path stroke="#83919d" d="M128.87 175.87q5.78 8.62 8.17 18.63" vector-effect="non-scaling-stroke"/><path stroke="#8393a9" d="m137.04 194.5 4.63 20.16" vector-effect="non-scaling-stroke"/><path stroke="#8697aa" d="M141.67 214.66q-4.12 21.67-7.86 43.19c-1.81 10.45-1.9 21.16-2.77 31.9" vector-effect="non-scaling-stroke"/><path stroke="#869bb7" d="M131.04 289.75q-4.86 19.42-8.74 39.06-.88 4.44-1.26 8.94" vector-effect="non-scaling-stroke"/><path stroke="#8393a9" d="m121.04 337.75-5 52" vector-effect="non-scaling-stroke"/><path stroke="#8eaccc" d="m116.04 389.75-.29.71" vector-effect="non-scaling-stroke"/><path stroke="#91b3d2" d="m115.75 390.46-8.29 8.54" vector-effect="non-scaling-stroke"/><path stroke="#9cbedf" d="m107.46 399-19.07 6.09" vector-effect="non-scaling-stroke"/><path stroke="#91b3d2" d="M88.39 405.09Q77.07 410 67 417.71" vector-effect="non-scaling-stroke"/><path stroke="#869bb7" d="M67 417.71q-4.81 4.23-7.45 10.21-.31.69.4.94l4.2 1.48" vector-effect="non-scaling-stroke"/><path stroke="#8393a9" d="M64.15 430.34q2.69 1.31 4.85 1.41 12.63.6 25.25 1.21" vector-effect="non-scaling-stroke"/><path stroke="#828a95" d="M94.25 432.96q34.4-.7 68.76-2.45.55-.03.84-.49 5.27-8.39 9.11-17.52" vector-effect="non-scaling-stroke"/><path stroke="#81868c" d="M172.96 412.5 183 391.96" vector-effect="non-scaling-stroke"/><path stroke="#828a95" d="m183 391.96 2.07 1.41" vector-effect="non-scaling-stroke"/><path stroke="#81868c" d="M185.07 393.37q7.49 11.1 15.93 21.17" vector-effect="non-scaling-stroke"/><path stroke="#8aa3bf" d="m201 414.54-17.5 13.92" vector-effect="non-scaling-stroke"/><path stroke="#869bb7" d="M183.5 428.46q-1.77 1.63-1.98 4-.04.5.37.77l3.99 2.62" vector-effect="non-scaling-stroke"/><path stroke="#81868c" d="M185.88 435.85q6.14 2.17 12.62 2.17 18.88.01 37.75-.56" vector-effect="non-scaling-stroke"/><path stroke="#8697aa" d="M236.25 437.46q33.75-.3 67.5-.96 1.91-.04 2.54-.75" vector-effect="non-scaling-stroke"/><path stroke="#828fa0" d="M306.29 435.75q2.74-2.02 5.96-3.04" vector-effect="non-scaling-stroke"/><path stroke="#8697aa" d="m312.25 432.71 3.25.25" vector-effect="non-scaling-stroke"/><path stroke="#81868c" d="m315.5 432.96 38.1.52" vector-effect="non-scaling-stroke"/><path stroke="#8aa3bf" d="M353.6 433.48q4.38.77 8.84-.2" vector-effect="non-scaling-stroke"/><path stroke="#81868c" d="m362.44 433.28 54.56-.99" vector-effect="non-scaling-stroke"/><path stroke="#828fa0" d="M417 432.29q1.17.6 1.69-.35l12.6-22.94" vector-effect="non-scaling-stroke"/><path stroke="#8697aa" d="m431.29 409 13.16-21.49" vector-effect="non-scaling-stroke"/><path stroke="#8aa3bf" d="M444.45 387.51q2.86-21.49 3.98-43.33" vector-effect="non-scaling-stroke"/><path stroke="#91b3d2" d="M448.43 344.18q-.14-1.26-.93-2.47" vector-effect="non-scaling-stroke"/><path stroke="#9cbedf" d="M447.5 341.71q-8.51-23.06-17.93-45.78c-7.42-17.91-14.65-30.36-25.53-48.26q-4.05-6.68-8.97-12.73c-10.38-12.77-17.22-20.95-26.87-30.39q-34.08-33.29-68.66-66.05" vector-effect="non-scaling-stroke"/><path stroke="#c7dbeb" d="M299.54 138.5q-22.47-23.82-43.04-49.3-.31-.39-.8-.52l-.66-.18" vector-effect="non-scaling-stroke"/><path stroke="#9cbedf" d="m255.04 88.5-.54-.54" vector-effect="non-scaling-stroke"/><path stroke="#dfe9f1" d="m254.5 87.96-.49-.9q-.23-.43-.72-.45c-9.75-.39-20.32.43-29.86-1.51q-23.72-4.82-47.77-8.32" vector-effect="non-scaling-stroke"/><path stroke="#7ca8d1" d="M254.5 87.96c-2.91 2.93 22.43 61.38 25.4 68.48q.1.24-.15.31-.14.04-.25.04" vector-effect="non-scaling-stroke"/><path stroke="#719dc4" d="m279.5 156.79-21.25-30.08" vector-effect="non-scaling-stroke"/><path stroke="#8aafcf" d="m258.25 126.71-1.48-2.16" vector-effect="non-scaling-stroke"/><path stroke="#b3cde3" d="m256.77 124.55-27.53-37.09a.92.92 0 0 0-1.59.22q-2.87 7.41-7.65 14.11" vector-effect="non-scaling-stroke"/><path stroke="#94b7d7" d="m220 101.79-1.49-.43" vector-effect="non-scaling-stroke"/><path stroke="#a7c5dd" d="m218.51 101.36-13.39-8.91" vector-effect="non-scaling-stroke"/><path stroke="#b3cde3" d="m205.12 92.45-29.46-15.67" vector-effect="non-scaling-stroke"/><path stroke="#266bad" d="m280.54 159.15-18.63 38.69q-.47.98.52 1.43l44.31 20a.75.75 0 0 1-.16 1.42l-37.8 7.21" vector-effect="non-scaling-stroke"/><path stroke="#1f609f" d="M268.78 227.9q-3.63-13.2-6.78-26.15-.12-.49-.79-1.25" vector-effect="non-scaling-stroke"/><path stroke="#1a538c" d="M261.21 200.5v-.75" vector-effect="non-scaling-stroke"/><path stroke="#5f93c3" d="m197.75 96.04 13.35 9.21a2.47 2.46-38.1 0 0 2.29.27l7.36-2.81" vector-effect="non-scaling-stroke"/><path stroke="#3b79b0" d="M258.25 126.71q-.11.06-.21.13-.23.18-.21.47c.17 2.57 1.75 25.11.92 25.48" vector-effect="non-scaling-stroke"/><path stroke="#3872aa" d="m258.75 152.79-1.54-1.29" vector-effect="non-scaling-stroke"/><path stroke="#4684bd" d="M257.21 151.5c.14-.73.13-1.18-.33-1.8q-17.1-23.22-35.26-45.64-.35-.43-.49.11c-.64 2.53-.1 5.4-.11 7.3q-.03 5.84-.02 11.66.01.44-.41.59-.17.07-.34.07" vector-effect="non-scaling-stroke"/><path stroke="#3f7db8" d="M220.25 123.79q-.12-.04-.25-.08" vector-effect="non-scaling-stroke"/><path stroke="#3b79b0" d="m220 123.71-7.54-15.76" vector-effect="non-scaling-stroke"/><path stroke="#3f7db8" d="M212.46 107.95q-.45-1.73-2.61-2.16" vector-effect="non-scaling-stroke"/><path stroke="#72a1c9" d="M209.85 105.79q-6.21-3.46-13.37-3.23" vector-effect="non-scaling-stroke"/><path stroke="#3872aa" d="m196.48 102.56-4.48 1.98" vector-effect="non-scaling-stroke"/><path stroke="#4684bd" d="M192 104.54q-.33-1.41 1.51-1.63 1.02-.12.28-.82c-2.69-2.55-11.33-2.36-12.29-4.05" vector-effect="non-scaling-stroke"/><path stroke="#9bbfdd" d="M205.12 92.45q-5.88 1.09-11.37.84" vector-effect="non-scaling-stroke"/><path stroke="#88b0d6" d="M193.75 93.29q-2.21-.3-2.94-.58-11.08-4.17-22.52-6.53" vector-effect="non-scaling-stroke"/><path stroke="#7ea9cf" d="m168.29 86.18-15.61 1.96m104.09 36.41-36.02-21.84" vector-effect="non-scaling-stroke"/><path stroke="#88b0d6" d="m220.75 102.71-.75-.92" vector-effect="non-scaling-stroke"/><path stroke="#649acb" d="M255.04 88.5q4.76 7.95 12.9 19.56 32.73 46.62 58.16 81.04.08.11.17.01.08-.09.2-.19.11-.08.05-.2-13.24-24.84-27.2-49.28-.27-.48.22-.94" vector-effect="non-scaling-stroke"/><path stroke="#2d72b2" d="M447.5 341.71q-1.48-.07-2.94-1.77-9.1-10.65-27.55-30.06" vector-effect="non-scaling-stroke"/><path stroke="#3176ba" d="M417.01 309.88q.2-.78-.97-.63" vector-effect="non-scaling-stroke"/><path stroke="#518cc4" d="m416.04 309.25.46-.46" vector-effect="non-scaling-stroke"/><path stroke="#649acb" d="m416.5 308.79 12.02-12.81a.18.18 0 0 0-.19-.3l-31.86 11.63" vector-effect="non-scaling-stroke"/><path stroke="#518cc4" d="M396.47 307.31q-1.89.42-3.43 1.69" vector-effect="non-scaling-stroke"/><path stroke="#3176ba" d="m393.04 309-.53-.58q-.34-.36-.39-.86c-.19-1.76-1.7-17.4-2.62-17.35" vector-effect="non-scaling-stroke"/><path stroke="#27629f" d="m389.5 290.21.21-1.21" vector-effect="non-scaling-stroke"/><path stroke="#3176ba" d="M389.71 289q4.44-21.34 8.61-42.74.29-1.48-.24-2.94-.18-.47.08-.91c.78-1.28-.37-2.02-1.54-2.23-4.13-.72-45.71-8.74-45.91-8.43" vector-effect="non-scaling-stroke"/><path stroke="#4684bd" d="m350.71 231.75-.58-.44" vector-effect="non-scaling-stroke"/><path stroke="#518cc4" d="M350.13 231.31q-10.99-20.73-22.94-40.43a.36.35 45.5 0 0-.6-.01l-17.94 28.68" vector-effect="non-scaling-stroke"/><path stroke="#3176ba" d="M308.65 219.55q-1.81-2.02-4.25-7.47-11.85-26.42-23.86-52.93" vector-effect="non-scaling-stroke"/><path stroke="#2d72b2" d="M280.54 159.15q-.08-1.24-1.04-2.36" vector-effect="non-scaling-stroke"/><path stroke="#7ca9d1" d="M218.51 101.36q-9.64-.65-18.09-5.15-.45-.24-.96-.22l-1.71.05" vector-effect="non-scaling-stroke"/><path stroke="#72a1c9" d="M197.75 96.04 194 94.21" vector-effect="non-scaling-stroke"/><path stroke="#1f609f" d="M258.75 152.79q.42.6.5 2.21 1.16 22.37 1.96 44.75" vector-effect="non-scaling-stroke"/><path stroke="#174c85" d="M261.21 199.75c-.27-.65-.7-.65-1.22-.25q-8.31 6.32-16.97 12.24-.46.32-.7-.19-7.82-16.65-16.63-32.91m35.52 21.86c-.34.29-.96.75-1.16 1.16q-5.88 12.38-11.22 25.01c-2.88 6.81-6.46 12.91-10.02 19.31q-.25.45-.03.92l7.18 15.85" vector-effect="non-scaling-stroke"/><path stroke="#144379" d="M245.96 262.75q-2.08 1.04-4.25 1.93c-5.16 2.12-10.28 6.58-14.75 9.95q-3.27 2.47-6.98 6.27c-4.82 4.94-7.89 7.63-14.55 9.31q-.44.12-.33.56.15.68-.56 1.23" vector-effect="non-scaling-stroke"/><path stroke="#0f3b70" d="m204.54 292-3.44-23.99q-.07-.51.34-.83 5.9-4.65 12.09-8.9c2.57-1.75 5.1-6.97 7.35-9.32q5.45-5.72 13.03-8.22.51-.17.25-.65-.36-.66.15-.97.44-.26.26-.74-3.5-8.95-8.32-17.25" vector-effect="non-scaling-stroke"/><path stroke="#103763" d="m226.25 221.13-1.25-2.34" vector-effect="non-scaling-stroke"/><path stroke="#174c85" d="m225 218.79 16.41-6.31a.43.43 0 0 0 .03-.79c-3.42-1.62-37.97-18.27-38.23-17.44" vector-effect="non-scaling-stroke"/><path stroke="#4985c0" d="m308.65 219.55 1.35 21.16" vector-effect="non-scaling-stroke"/><path stroke="#3f7db8" d="m310 240.71-.29.29" vector-effect="non-scaling-stroke"/><path stroke="#2364a7" d="m309.71 241-1.96 2.46" vector-effect="non-scaling-stroke"/><path stroke="#1f5b9a" d="M307.75 243.46 261.46 294" vector-effect="non-scaling-stroke"/><path stroke="#1e5794" d="M261.46 294h-.42" vector-effect="non-scaling-stroke"/><path stroke="#1f5b9a" d="m261.04 294-.04-.96" vector-effect="non-scaling-stroke"/><path stroke="#2364a7" d="M261 293.04q.47-.41.55-1.03 3.67-29.15 7.04-58.33c.22-1.91.13-3.87.19-5.78" vector-effect="non-scaling-stroke"/><path stroke="#19508c" d="M261 293.04q-.19-.01-.37-.04-.35-.05-.52-.37-7.73-14.63-14.15-29.88" vector-effect="non-scaling-stroke"/><path stroke="#266bad" d="m220 123.71-.5.33" vector-effect="non-scaling-stroke"/><path stroke="#2364a7" d="M221.25 125.21q3.15 23.14 3.76 46.6" vector-effect="non-scaling-stroke"/><path stroke="#7ca9d1" d="m193.75 93.29.25.92" vector-effect="non-scaling-stroke"/><path stroke="#5f93c3" d="M194 94.21q-6.42 1.36-12.5 3.83" vector-effect="non-scaling-stroke"/><path stroke="#518cc4" d="m181.5 98.04-1.5.25" vector-effect="non-scaling-stroke"/><path stroke="#88b0d6" d="m180 98.29-1.5-.33" vector-effect="non-scaling-stroke"/><path stroke="#7ca9d1" d="M178.5 97.96c-1.91-1.11-4.43-1.19-5.99-1.63l-11.26-3.12" vector-effect="non-scaling-stroke"/><path stroke="#2a6bab" d="m257.21 151.5-35.96-26.29" vector-effect="non-scaling-stroke"/><path stroke="#3176ba" d="m221.25 125.21-1-1.42" vector-effect="non-scaling-stroke"/><path stroke="#2364a7" d="M205 105.54q4.07 4.43 4.46 10.46" vector-effect="non-scaling-stroke"/><path stroke="#1f609f" d="m209.46 116-.75 1.75" vector-effect="non-scaling-stroke"/><path stroke="#144883" d="m196.54 115 5.88.24q.5.02.92-.25 1.2-.77 2.66-.28" vector-effect="non-scaling-stroke"/><path stroke="#124076" d="M206 114.71q.74 1.21 1.9 1.43.8.14.42-.57l-2.81-5.41" vector-effect="non-scaling-stroke"/><path stroke="#3872aa" d="M205.51 110.16q-1.43-5.06-6.81-5.58-.4-.04-.31.35.28 1.2 1.36 2.03" vector-effect="non-scaling-stroke"/><path stroke="#124076" d="M199.75 106.96q-5.62-.02-11.08 1.54" vector-effect="non-scaling-stroke"/><path stroke="#5c93c6" d="m209.85 105.79-4.85-.25" vector-effect="non-scaling-stroke"/><path stroke="#5688b8" d="m205 105.54-8.52-2.98" vector-effect="non-scaling-stroke"/><path stroke="#2a6bab" d="m192 104.54-5.59 2.17a.81.81 0 0 0-.25 1.35q.93.86 2.51.44" vector-effect="non-scaling-stroke"/><path stroke="#205289" d="m188.67 108.5 1.08.54" vector-effect="non-scaling-stroke"/><path stroke="#225a96" d="M189.75 109.04q3.02 3.41 6.79 5.96" vector-effect="non-scaling-stroke"/><path stroke="#2a6bab" d="M196.54 115c.55 3.66 9.21 2.66 12.17 2.75" vector-effect="non-scaling-stroke"/><path stroke="#2d72b2" d="m208.71 117.75 10.79 6.29" vector-effect="non-scaling-stroke"/><path stroke="#3176ba" d="M219.5 124.04q.67.31 1 .88.28.47-.2.75l-5.8 3.37" vector-effect="non-scaling-stroke"/><path stroke="#2d72b2" d="M214.5 129.04c-8.12-5.06-16.4-10.75-23.97-13.66q-.68-.27-.32.37L203.29 139" vector-effect="non-scaling-stroke"/><path stroke="#3176ba" d="m203.29 139-5.78 6.89q-.32.38-.45.86-.41 1.5-2.02 1.25" vector-effect="non-scaling-stroke"/><path stroke="#649acb" d="m195.04 148-11.5-40.75" vector-effect="non-scaling-stroke"/><path stroke="#266bad" d="M212.46 107.95q.01 4.66-1.42 8.93-.13.37-.52.37h-.51q-.47 0-.5-.47l-.05-.78" vector-effect="non-scaling-stroke"/><path stroke="#5f93c3" d="M168.29 86.18q-2.66 3.6-6.26 5.38-.46.23-.49.75-.03.53-.29.9" vector-effect="non-scaling-stroke"/><path stroke="#72a1c9" d="m161.25 93.21-2 .25" vector-effect="non-scaling-stroke"/><path stroke="#7ea9cf" d="m159.25 93.46-13 4" vector-effect="non-scaling-stroke"/><path stroke="#3f7db8" d="M146.25 97.46q.05-2.99-2.21-4.71" vector-effect="non-scaling-stroke"/><path stroke="#4985c0" d="M416.04 309.25c-7.14 6.61-14.44 12.98-20.24 20.96q-10.32 14.22-20.84 28.29" vector-effect="non-scaling-stroke"/><path stroke="#5f93c3" d="m374.96 358.5-.71.21" vector-effect="non-scaling-stroke"/><path stroke="#518cc4" d="M374.25 358.71q9.44-22.52 17.42-45.81" vector-effect="non-scaling-stroke"/><path stroke="#4985c0" d="M393.04 309q-.24 2.21-1.37 3.9" vector-effect="non-scaling-stroke"/><path stroke="#3176ba" d="M391.67 312.9q-6.81 6.49-15.37 17.91-5.41 7.22-23.02 28.96c-.93 1.15-9.99 11.01-9.49 12.98" vector-effect="non-scaling-stroke"/><path stroke="#3f7db8" d="m343.79 372.75-2.5 1.25" vector-effect="non-scaling-stroke"/><path stroke="#7ca9d1" d="M416.5 308.79q-7.36-.59-14.75-.81-1.42-.04-5.28-.67" vector-effect="non-scaling-stroke"/><path stroke="#1c5692" d="m448.43 344.18-35.37 34.18" vector-effect="non-scaling-stroke"/><path stroke="#266bad" d="m417.01 309.88-3.95 68.48" vector-effect="non-scaling-stroke"/><path stroke="#1f5b9a" d="m413.06 378.36-29.81 19.43" vector-effect="non-scaling-stroke"/><path stroke="#2364a7" d="m383.25 397.79-12.3-30.36" vector-effect="non-scaling-stroke"/><path stroke="#3f7db8" d="m370.95 367.43 4.01-8.93" vector-effect="non-scaling-stroke"/><path stroke="#5f93c3" d="m350.13 231.31-40.13 9.4" vector-effect="non-scaling-stroke"/><path stroke="#1f5b9a" d="M389.71 289q-15.97 3.26-31.93 6.52c-.26.05-.53.3-.74.48" vector-effect="non-scaling-stroke"/><path stroke="#3176ba" d="M357.04 296q-.12-.56-.01-1.08" vector-effect="non-scaling-stroke"/><path stroke="#1f5b9a" d="M389.5 290.21q-23.85 41.57-48.19 82.85-.17.3-.02.94" vector-effect="non-scaling-stroke"/><path stroke="#35699d" d="m341.29 374-.83 1.75" vector-effect="non-scaling-stroke"/><path stroke="#113b6a" d="M340.46 375.75q-.86-.4-1.21.46" vector-effect="non-scaling-stroke"/><path stroke="#0d3260" d="m339.25 376.21-38.72 27.86" vector-effect="non-scaling-stroke"/><path stroke="#1c5692" d="M300.53 404.07q16.03-23.8 33.66-47.51a.33.32 55.5 0 1 .57.11l4.47 15.84a.39.38 56.8 0 0 .67.14q.16-.2.19-.48c3.04-23.58 9.84-47.1 15.61-70.15.14-.56.02-1.44.01-2.02" vector-effect="non-scaling-stroke"/><path stroke="#27629f" d="m355.71 300 1.33-4" vector-effect="non-scaling-stroke"/><path stroke="#3f7db8" d="m350.71 231.75 6.32 63.17" vector-effect="non-scaling-stroke"/><path stroke="#4684bd" d="M357.03 294.92q-2.3 1.46-2.96 3.47" vector-effect="non-scaling-stroke"/><path stroke="#3f7db8" d="m354.07 298.39-25.16 27.11q-.38.41-.87.15-6.99-3.69-13.87-7.64c-1.43-.82-1.33-1.5-1.19-3.01q1.18-12.45 1.48-28.25.01-.81-.27-1.85" vector-effect="non-scaling-stroke"/><path stroke="#3872aa" d="M314.19 284.9q-1.31-21.92-4.48-43.9" vector-effect="non-scaling-stroke"/><path stroke="#266bad" d="M214.5 129.04q5.55 15.68 6.98 25.22 1.8 11.91 3.53 17.55" vector-effect="non-scaling-stroke"/><path stroke="#1f609f" d="M225.01 171.81q1.45 3.59.68 6.83" vector-effect="non-scaling-stroke"/><path stroke="#1a538c" d="m225.69 178.64-20.19 3.32" vector-effect="non-scaling-stroke"/><path stroke="#1f609f" d="m205.5 181.96-.54-.71" vector-effect="non-scaling-stroke"/><path stroke="#4680b8" d="M204.96 181.25c.02-.6.11-1.04-.09-1.64q-4.94-15.08-9.37-30.32" vector-effect="non-scaling-stroke"/><path stroke="#266bad" d="M195.5 149.29q.14-.03.27-.04.22-.01.38.14l26.44 26.74a.75.75 0 0 0 1.2-.87q-9.71-18.67-20.5-36.26" vector-effect="non-scaling-stroke"/><path stroke="#144379" d="m261.04 294-31.37 43.97" vector-effect="non-scaling-stroke"/><path stroke="#174c85" d="m205.5 181.96-.5.75" vector-effect="non-scaling-stroke"/><path stroke="#154476" d="m225 218.79-.21-.04" vector-effect="non-scaling-stroke"/><path stroke="#113e77" d="M204.54 292q.35 3.51 1.67 6.75" vector-effect="non-scaling-stroke"/><path stroke="#0d3361" d="M226.25 221.13q-.29 1.47-1.32 2.24-.4.29-.5.77c-.66 2.96-2.87 15.26-5.27 16.47-3.46 1.76-6.33 4.55-8.93 7.4-2.76 3.03-7.2 4.51-10.54 7.06q-.39.3-.39.8.05 6.99-6.55 8.64c-1.61.41-3.53.08-5.39.56q-.48.12-.94-.03c-2.55-.83-8.09-3.48-10.28-1.52a1.5 1.49 47.2 0 0-.08 2.15q15.65 16.39 30.15 33.08" vector-effect="non-scaling-stroke"/><path stroke="#113b6a" d="m206.21 298.75 23.46 39.22" vector-effect="non-scaling-stroke"/><path stroke="#103763" d="M229.67 337.97q9.82 19.15 18.26 39.58.19.46.69.41.29-.04.59-.21" vector-effect="non-scaling-stroke"/><path stroke="#092240" d="M249.21 377.75q-.03 1.08-.55 1.9-.31.48-.77.14l-23.73-16.97" vector-effect="non-scaling-stroke"/><path stroke="#0a2b54" d="M224.16 362.82c-11.39-3.9-22.53-7.96-34.12-11.32" vector-effect="non-scaling-stroke"/><path stroke="#0a2947" d="M190.04 351.5q-19.48-19.87-40.15-38.52-4.65-4.19-6.5-6.25-3.7-4.12-5.12-7.49-.87-2.07-2.08-1.01" vector-effect="non-scaling-stroke"/><path stroke="#0d3361" d="m136.19 298.23-3.63-7.87q-.21-.45-.71-.51l-.81-.1" vector-effect="non-scaling-stroke"/><path stroke="#2e577b" d="m138.25 155.79-1.38 8.45q-.04.24.2.27c.37.04 2.35-8.02 2.77-9.22m2.91 3.25-.88 11.46q-.01.12.12.16.13.05.27.09.18.06.21-.13l1.32-10.37m4.5 3.25-.98 10.03q-.15 1.49.24.04 1.1-4.18 1.45-8.36" vector-effect="non-scaling-stroke"/><path stroke="#0a2947" d="M149 164.71c1.66.14 2.68 2.52 4.21 1.29" vector-effect="non-scaling-stroke"/><path stroke="#4b6d89" d="m153.21 166-.17 7.24q-.04 1.53.34.04.8-3.22.41-6.53" vector-effect="non-scaling-stroke"/><path stroke="#0e355d" d="m153.79 166.75 4.59 2.04" vector-effect="non-scaling-stroke"/><path stroke="#4b6d89" d="m158.38 168.79-1.8 9.16q-.29 1.5.32.1.86-1.96 1.63-4.99" vector-effect="non-scaling-stroke"/><path stroke="#051829" d="M158.53 173.06q7.61 6.41 11.66 13 4.32 7.01 11.11 21.67c.39.83 1.07 1.56 1.91.71q.34-.35.82-.46c3.86-.94 10.82-.95 13.82-2.94q.48-.32.67-.87l3.82-10.89a.93.86-82.1 0 0-.86-1.24c-1.4.13-8.79-6.55-10.23-7.75" vector-effect="non-scaling-stroke"/><path stroke="#123e69" d="m191.25 184.29 13.75-1.58" vector-effect="non-scaling-stroke"/><path stroke="#0d3156" d="M205 182.71c.96.4-2 9.21-2.37 10.48q-.15.52.29.85l.29.21" vector-effect="non-scaling-stroke"/><path stroke="#123e69" d="m203.21 194.25 20.58 23.5" vector-effect="non-scaling-stroke"/><path stroke="#072547" d="m223.79 217.75-.38.28q-.17.12-.34.03l-24.28-12.58q-.84-.44-.92.51L195.28 237q-.05.62-.65.44c-5.57-1.64-6.18-5.89-9.86-9.48-5.14-5-9.04-9.95-15.3-14.65a.84.84 0 0 0-1.33.52l-5.74 30.4q-.19 1.01-1.19.74c-2.5-.67-2.51-7.38-3.29-9.72q-.16-.5-.58-.83l-2.19-1.75q-.34-.27-.4-.7c-.35-2.35-2-3.66-2.71-5.51q-2.2-5.7-5.14-11.02-.22-.41-.18-.88c.32-3.35-1.99-4.78-3.26-7.8q-2.72-6.44-4.96-13.16-.21-.62-.72-.2-.47.39-.74 1.1" vector-effect="non-scaling-stroke"/><path stroke="#2364a7" d="M314.19 284.9q-28.37 32.6-57.36 64.43-1.06 1.17-2.29 2.17" vector-effect="non-scaling-stroke"/><path stroke="#174c85" d="M254.54 351.5q-.16-.98.4-2.31 11.91-28.39 19.81-46" vector-effect="non-scaling-stroke"/><path stroke="#19508c" d="M274.75 303.19q3.93-5.21 4.75-6.72 14.29-26.17 28.61-52.33.18-.33-.14-.54l-.22-.14" vector-effect="non-scaling-stroke"/><path stroke="#144379" d="M274.75 303.19q-7.11-3.78-13.29-9.19" vector-effect="non-scaling-stroke"/><path stroke="#1a538c" d="M257.04 359.23c1.54 2.72 16.82 28.13 16.46 28.48" vector-effect="non-scaling-stroke"/><path stroke="#255e98" d="M273.5 387.71q-.12.04-.25.08" vector-effect="non-scaling-stroke"/><path stroke="#174c85" d="m273.25 387.79-21 2.92" vector-effect="non-scaling-stroke"/><path stroke="#0c2a4f" d="m252.25 390.71 1.06-32.61a.39.39 0 0 0-.77-.09q-2.18 9.81-3.33 19.74" vector-effect="non-scaling-stroke"/><path stroke="#9bbfdd" d="M178.5 97.96c-.47.23-.79.58-1.31.67q-7.74 1.37-15.4 3.12" vector-effect="non-scaling-stroke"/><path stroke="#a7c5dd" d="M161.79 101.75 160 94.21" vector-effect="non-scaling-stroke"/><path stroke="#9bbfdd" d="M160 94.21q.07-.23.36-.39.45-.25-.06-.29l-1.05-.07" vector-effect="non-scaling-stroke"/><path stroke="#70a2d0" d="m180 98.29 3.54 8.96" vector-effect="non-scaling-stroke"/><path stroke="#9bbfdd" d="M183.54 107.25c-2.97 1.39-7.88 1.94-9.83 4.5" vector-effect="non-scaling-stroke"/><path stroke="#2e5987" d="M205.51 110.16q-2.56-2.48-5.76-3.2" vector-effect="non-scaling-stroke"/><path stroke="#0a2f61" d="m206 114.71.01-.73q.01-.58-.56-.48-.23.04-.41 0" vector-effect="non-scaling-stroke"/><path stroke="#051a36" d="M205.04 113.5c-3.25-4.25-6.33-5.36-11.58-4.2" vector-effect="non-scaling-stroke"/><path stroke="#0a2f61" d="m193.46 109.3-3.71-.26" vector-effect="non-scaling-stroke"/><path stroke="#5c93c6" d="M195.04 148q-.04.13-.08.25" vector-effect="non-scaling-stroke"/><path stroke="#7ca9d1" d="M194.96 148.25q-10.08-.11-16.82 7.01a.76.75-31.2 0 1-1.27-.31c-2.4-8.29.62-18.71 1.63-27.16" vector-effect="non-scaling-stroke"/><path stroke="#689bcc" d="M146.25 97.46q-5.39 1.35-9.25 5.25" vector-effect="non-scaling-stroke"/><path stroke="#b3cde3" d="M160 94.21c-1.81.09-9.02 6.54-10.87 8.02q-.37.3.05.51c10.77 5.61 20.83 12.79 31.43 18.34a.44.43 16.8 0 0 .64-.34l.04-.49" vector-effect="non-scaling-stroke"/><path stroke="#9bbfdd" d="m181.29 120.25 1.54 1.94q.41.52-.26.54c-.22.01-3.31 4.38-4.07 5.06" vector-effect="non-scaling-stroke"/><path stroke="#88b0d6" d="m178.5 127.79-3.41-1.69" vector-effect="non-scaling-stroke"/><path stroke="#b3cde3" d="M175.09 126.1q1.09-2.98-.26-5.25-.91-1.53-3.87-2.75-10.41-4.3-20.71-8.81" vector-effect="non-scaling-stroke"/><path stroke="#4684bd" d="M374.25 358.71c-.9.84-.76 1.06-2.03 1.61q-14.22 6.22-28.43 12.43" vector-effect="non-scaling-stroke"/><path stroke="#3872aa" d="m370.95 367.43-16.2 35.11" vector-effect="non-scaling-stroke"/><path stroke="#315d88" d="m354.75 402.54-14.29-26.79" vector-effect="non-scaling-stroke"/><path stroke="#113b6a" d="M444.45 387.51q-15.33-3.37-30.63-7.77a.73.73 0 0 0-.9.9l5.58 20.32" vector-effect="non-scaling-stroke"/><path stroke="#0d3260" d="m418.5 400.96-11 3.83" vector-effect="non-scaling-stroke"/><path stroke="#0e3769" d="M407.5 404.79h-1" vector-effect="non-scaling-stroke"/><path stroke="#113b6a" d="m406.5 404.79-22.75-6.08" vector-effect="non-scaling-stroke"/><path stroke="#144379" d="m383.75 398.71-.96-.46" vector-effect="non-scaling-stroke"/><path stroke="#19508c" d="m382.79 398.25.46-.46" vector-effect="non-scaling-stroke"/><path stroke="#174c85" d="m382.79 398.25-26.45 4.64c-.13.02-.94-.07-1.09-.1" vector-effect="non-scaling-stroke"/><path stroke="#154476" d="m355.25 402.79-.5-.25" vector-effect="non-scaling-stroke"/><path stroke="#2d72b2" d="M355.71 300q-.17.51-.56.84-.37.31-.53.76-9.19 26.06-19.64 51.93" vector-effect="non-scaling-stroke"/><path stroke="#144273" d="m300.53 404.07-1.82 1.93" vector-effect="non-scaling-stroke"/><path stroke="#1a538c" d="m298.71 406-.92.25" vector-effect="non-scaling-stroke"/><path stroke="#2d72b2" d="M297.79 406.25q-.01-.12-.04-.25-.04-.21-.22-.33-12-8.45-23.35-17.77-.16-.13-.38-.15-.15-.01-.3-.04" vector-effect="non-scaling-stroke"/><path stroke="#103763" d="M355.25 402.79q5.95 3.88 12.48 6.62c5.7 2.39 12.71 2.41 18.81 3.1a1.55 1.54 81.5 0 0 1.59-2.16c-.65-1.49-5.21-11.08-4.38-11.64" vector-effect="non-scaling-stroke"/><path stroke="#0a2b54" d="M406.5 404.79c-.18.47-.47 1.12-.93 1.4q-7.8 4.77-14.78 10.58" vector-effect="non-scaling-stroke"/><path stroke="#113b6a" d="M390.79 416.77q-3.86-.94-7.97-.12" vector-effect="non-scaling-stroke"/><path stroke="#154476" d="M382.82 416.65q-12.48.71-25.88 5.79-2.99 1.13-7.19.27" vector-effect="non-scaling-stroke"/><path stroke="#0a2b54" d="m349.75 422.71.93-.86q.28-.26.05-.58c-.26-.36-.56-.68-1.01-.85q-8.44-3.1-16.56-7.17-.49-.24-.38-.77l6.46-33.19" vector-effect="non-scaling-stroke"/><path stroke="#09274b" d="M339.24 379.29q.69-1.72.01-3.08" vector-effect="non-scaling-stroke"/><path stroke="#06234a" d="M339.24 379.29q-1.59 1.36-3.02 4.44-8.68 18.62-18.49 37.91-.59 1.14.69 1.22c.21.02 11.12-7.77 12.01-8.37q2.46-1.68 1.81 1.23-.89 3.98-2.44 7.75-.18.46-.67.51-.39.05-.63.31" vector-effect="non-scaling-stroke"/><path stroke="#113c6d" d="M328.5 424.29c-5.73-.79-9.51.44-14.04 3.96" vector-effect="non-scaling-stroke"/><path stroke="#09274b" d="M314.46 428.25q-1.79 1.9-2.21 4.46m-5.96 3.04-.75-1.25" vector-effect="non-scaling-stroke"/><path stroke="#0c2f5a" d="M305.54 434.5q-3.98-14.12-6.83-28.5" vector-effect="non-scaling-stroke"/><path stroke="#3176ba" d="M354.07 298.39q-6.93 12.46-15.24 24.07c-2.79 3.9-5.01 7.71-7.41 11.68q-.25.42-.15.89l3.71 18.5" vector-effect="non-scaling-stroke"/><path stroke="#266bad" d="m334.98 353.53-.51 1.99q-.12.45-.57.32l-17.22-4.85q-.51-.15-.93.18-19.69 15.46-38.04 32.47a1.59 1.58-43.3 0 1-2.23-.06q-4.3-4.45-7.52-9.76-.27-.45-.74-.68-1.69-.83-1.67-2.78 0-.47-.35-.79-1.07-.96-1.28-2.4-.06-.49-.4-.85l-6.48-7.09" vector-effect="non-scaling-stroke"/><path stroke="#1e5794" d="m257.04 359.23-3.4-5.58q-.27-.44-.08-.92.29-.72.98-1.23" vector-effect="non-scaling-stroke"/><path stroke="#4985c0" d="m194.96 148.25.54 1.04" vector-effect="non-scaling-stroke"/><path stroke="#437ab1" d="M204.96 181.25q-6.68-5.87-12.45-12.64-.34-.39-.85-.47l-4.66-.68" vector-effect="non-scaling-stroke"/><path stroke="#4680b8" d="m187 167.46-9.7-9.1" vector-effect="non-scaling-stroke"/><path stroke="#437ab1" d="m177.3 158.36-8.89-11.54" vector-effect="non-scaling-stroke"/><path stroke="#103358" d="m190.25 183.96 1 .33" vector-effect="non-scaling-stroke"/><path stroke="#1f609f" d="m187 167.46-.75.33" vector-effect="non-scaling-stroke"/><path stroke="#1c5692" d="M186.25 167.79c-5.46-.4-12.42.51-17.46-1.54" vector-effect="non-scaling-stroke"/><path stroke="#19508c" d="M186.25 167.79c2.19.11 3.76 13.93 4 16.17" vector-effect="non-scaling-stroke"/><path stroke="#0c2a4c" d="m190.25 183.96-20.28-8.8" vector-effect="non-scaling-stroke"/><path stroke="#124076" d="m223.79 217.75 1 1" vector-effect="non-scaling-stroke"/><path stroke="#0a2b54" d="m224.79 218.75-28.95 20.02q-.43.3-.35.82.75 4.88-4.16 5.81c-7.24 1.38-14.4 1.12-21.59 2.25q-2.98.47-6.02.51-.54.01-.97.36-.95.77-2.11.71-.56-.03-.79-.52-8.34-17.41-18.18-34.05" vector-effect="non-scaling-stroke"/><path stroke="#113762" d="m252.25 390.71-5.07 3.04" vector-effect="non-scaling-stroke"/><path stroke="#0d2e55" d="m247.18 393.75-14.98 7.13" vector-effect="non-scaling-stroke"/><path stroke="#051a36" d="M232.2 400.88q-1.32-3.95-1.96-7.88-2.21-13.36-5.45-26.5" vector-effect="non-scaling-stroke"/><path stroke="#072547" d="m190.04 351.5 1.2 2.89" vector-effect="non-scaling-stroke"/><path stroke="#061c33" d="M191.24 354.39q-2.14 3.47-2.56 8.3-.53 6.18-3.55 23.49c-.18 1.01-.88 2.05-.57 3.43q.11.5-.3.8-.79.6-2.01.13" vector-effect="non-scaling-stroke"/><path stroke="#051829" d="m182.25 390.54-14.86-16.06q-.33-.36-.78-.18-.18.06-.32.2" vector-effect="non-scaling-stroke"/><path stroke="#072547" d="m166.29 374.5-.33-1.75" vector-effect="non-scaling-stroke"/><path stroke="#0a2d54" d="M136.19 298.23q12.04 31.12 25.06 61.77 1.47 3.46 4.71 12.75" vector-effect="non-scaling-stroke"/><path stroke="#0a2f61" d="m165.96 372.75-31.26-7.06a1.41 1.4 84 0 1-.99-.81q-5.72-13.03-11.12-26.1c-.3-.71-.82-.98-1.55-1.03" vector-effect="non-scaling-stroke"/><path stroke="#061e3f" d="m224.16 362.82.63 3.68" vector-effect="non-scaling-stroke"/><path stroke="#06234a" d="M224.79 366.5c-.45 1.4-1.29 2.28-1.47 3.75q-2.04 16-4.28 31.99c-.24 1.7-1.2 2.23-2.79 2.05" vector-effect="non-scaling-stroke"/><path stroke="#061e3f" d="m216.25 404.29-25.01-49.9" vector-effect="non-scaling-stroke"/><path stroke="#336597" d="M147.96 145.75q1.44 8.62.33 17.25" vector-effect="non-scaling-stroke"/><path stroke="#0d3156" d="M148.29 163q-2.95-.08-3.44-2.77-.09-.48-.58-.48h-.48" vector-effect="non-scaling-stroke"/><path stroke="#336597" d="m143.79 159.75 1.02-11.69q.03-.38-.34-.3c-.1.02-1.41 9.55-1.72 10.78" vector-effect="non-scaling-stroke"/><path stroke="#0d3156" d="m142.75 158.54-2.91-3.25" vector-effect="non-scaling-stroke"/><path stroke="#336597" d="M139.84 155.29c.05-.57.6-6.4-.32-6.3q-.36.05-.32.41.35 3.34-.95 6.39" vector-effect="non-scaling-stroke"/><path stroke="#0d3156" d="M138.25 155.79q-1.72-.75-1.67-2.74.01-.69-.66-.54-1.13.25-.81-.81" vector-effect="non-scaling-stroke"/><path stroke="#103763" d="M135.11 151.7q.09.19.23.25.41.17.41-.27v-3.1q0-.25-.24-.17l-.53.18a.4.4 0 0 1-.52-.47l1.98-8.9q.13-.56-.42-.71L123.29 135" vector-effect="non-scaling-stroke"/><path stroke="#0a2947" d="m135.11 151.7-10.33-14.11q-.26-.36-.7-.32-.15.02-.29-.02" vector-effect="non-scaling-stroke"/><path stroke="#35699d" d="M148.79 146c.24 5.03 1.39 9.67.5 14.75" vector-effect="non-scaling-stroke"/><path stroke="#315d88" d="m149.29 160.75-.29 3.96" vector-effect="non-scaling-stroke"/><path stroke="#496278" d="M159.75 167.46q-1.35 3.19-1.22 5.6" vector-effect="non-scaling-stroke"/><path stroke="#081e36" d="M123.59 130.6q-1.11 1.44-.38 3.9" vector-effect="non-scaling-stroke"/><path stroke="#0b2645" d="m123.21 134.5.08.5" vector-effect="non-scaling-stroke"/><path stroke="#081e36" d="m123.29 135 .5 2.25" vector-effect="non-scaling-stroke"/><path stroke="#051829" d="M123.79 137.25q1.27 7.01 5.15 13.04.3.47.81.71l2.29 1.06q.64.29.15.8c-3.46 3.6-7.51 6.53-9.82 11.09q-.25.49.08.94 3.8 5.19 6.42 10.98m-16.11-4.18q1.71-5.51 1.78-7.9.16-5 3.99-7.73.39-.28.54-.75c.84-2.6 3.22-3.03 3.89-4.81" vector-effect="non-scaling-stroke"/><path stroke="#081e36" d="M122.96 150.5q.7-7.83-1.23-15.49" vector-effect="non-scaling-stroke"/><path stroke="#19508c" d="M159.5 147.54q1.9 1.02 2.88 2.8" vector-effect="non-scaling-stroke"/><path stroke="#35699d" d="M162.38 150.34c4.83 6.63 6.19 15.42 6.08 23.41" vector-effect="non-scaling-stroke"/><path stroke="#0c2a4c" d="M168.46 173.75c-2.35-1.71-5.93-6.13-8.71-6.29" vector-effect="non-scaling-stroke"/><path stroke="#527fab" d="M159.75 167.46c.23-5.03 1.57-9.89.69-15.05q-.03-.16-.19-.16h-.3q-.21-.01-.2.2.47 8.26-1.37 16.34m-4.59-2.04c.03-1.15.74-13.62-.71-15.73q-.53-.77-.46.16l.61 8.14" vector-effect="non-scaling-stroke"/><path stroke="#113b6a" d="M153.23 159.32q-.66 2.5-3.94 1.43" vector-effect="non-scaling-stroke"/><path stroke="#4e7396" d="m153.21 166 .02-6.68" vector-effect="non-scaling-stroke"/><path stroke="#2a6bab" d="m273.25 387.79-10.21 20.46" vector-effect="non-scaling-stroke"/><path stroke="#2364a7" d="M263.04 408.25q-1.99 1.2-3.98 2.7c-10.87 8.18-22.93 15.47-34.43 22.76q-.4.25-.58.69l-.55 1.31" vector-effect="non-scaling-stroke"/><path stroke="#103358" d="M223.5 435.71H220" vector-effect="non-scaling-stroke"/><path stroke="#19508c" d="M220 435.71q.02-3.52-2.26-6.42-.37-.47-.78-.03l-5.81 6.22" vector-effect="non-scaling-stroke"/><path stroke="#144883" d="m211.15 435.48-6.04-2.09a.67.67 0 0 1-.21-1.15q7.7-6.5 13.5-15.02" vector-effect="non-scaling-stroke"/><path stroke="#19508c" d="M218.4 417.22c2.27-2.29 4.18-4.6 6.88-6.51q11.32-7.98 21.9-16.96" vector-effect="non-scaling-stroke"/><path stroke="#255e98" d="m297.79 406.25-23.54 14.79" vector-effect="non-scaling-stroke"/><path stroke="#3176ba" d="M274.25 421.04q-6.19-5.72-11.21-12.79" vector-effect="non-scaling-stroke"/><path stroke="#b3cde3" d="m161.79 101.75 11.92 10" vector-effect="non-scaling-stroke"/><path stroke="#a7c5dd" d="m173.71 111.75 7.58 8.5" vector-effect="non-scaling-stroke"/><path stroke="#082243" d="M205.04 113.5c-1.25 2.78-10.23-3.17-11.58-4.2" vector-effect="non-scaling-stroke"/><path stroke="#94b7d7" d="m175.09 126.1-16.8-8.35" vector-effect="non-scaling-stroke"/><path stroke="#8aafcf" d="m158.29 117.75-2.04-2.29" vector-effect="non-scaling-stroke"/><path stroke="#09274b" d="m431.29 409-12.79-8.04" vector-effect="non-scaling-stroke"/><path stroke="#04162d" d="M417 432.29q-4.55-4.55-10.75-6.54" vector-effect="non-scaling-stroke"/><path stroke="#06234a" d="M406.25 425.75c1.98-4.38.88-13.41.42-18.25q-.08-.9.83-2.71" vector-effect="non-scaling-stroke"/><path stroke="#0e3769" d="M406.25 425.75q.02-.16.01-.31-.02-.36-.34-.52l-15.13-8.15" vector-effect="non-scaling-stroke"/><path stroke="#103763" d="M305.54 434.5q-.65 1.15-2.02.45-10.41-5.35-25.95-12.02-1.12-.48-3.82-1.22" vector-effect="non-scaling-stroke"/><path stroke="#1e5794" d="m273.75 421.71.5-.67" vector-effect="non-scaling-stroke"/><path stroke="#0c2a4c" d="M406.25 425.75q-10.23-.13-16.74 1.03-10.13 1.8-27.07 6.5m-8.84.2q-6.12-2.78-12.93-4.29" vector-effect="non-scaling-stroke"/><path stroke="#113b6a" d="m340.67 429.19-2.67-.23" vector-effect="non-scaling-stroke"/><path stroke="#19508c" d="M338 428.96q.47-.15.62-.44.27-.54-.3-.73l-9.78-3.29m17.96-1.79-5.27.4q-.58.05-.62.63l-.17 3a1.59 1.58 82 0 0 2.11 1.6l11.43-4.05q.59-.21.81.38l2.46 6.82q.49 1.35 1.48.3c2.68-2.86 6.15-7.66 9.81-8.88q7.41-2.47 14.28-6.26" vector-effect="non-scaling-stroke"/><path stroke="#124076" d="M349.75 422.71h-3.25" vector-effect="non-scaling-stroke"/><path stroke="#0e3769" d="M346.5 422.71c-5.73-.84-12.12 1.29-17.96 1.79" vector-effect="non-scaling-stroke"/><path stroke="#124076" d="m328.54 424.5-.04-.21" vector-effect="non-scaling-stroke"/><path stroke="#081e36" d="m236.25 437.46.25-2" vector-effect="non-scaling-stroke"/><path stroke="#154476" d="M338 428.96q-5.59-.01-11.16-.44c-3.81-.29-8.12.59-12.38-.27" vector-effect="non-scaling-stroke"/><path stroke="#081e36" d="m340.67 429.19-6.26 2.62q-.52.22-1.03 0c-3.52-1.53-5.66 1.4-9.33-1.44a2.47 2.46 39.8 0 0-3.35.3q-1.78 1.97-4.56 1.5-.49-.08-.65.38-.07.19.01.41" vector-effect="non-scaling-stroke"/><path stroke="#1f609f" d="m177.3 158.36-9.26 3.89" vector-effect="non-scaling-stroke"/><path stroke="#3872aa" d="M168.04 162.25q-.6-7.1-5.66-11.91" vector-effect="non-scaling-stroke"/><path stroke="#5f93c3" d="M158.29 117.75c1.39 6.77 4.15 12.51 6.81 21.43q.9 2.98 3.31 7.64" vector-effect="non-scaling-stroke"/><path stroke="#3872aa" d="m168.41 146.82-8.91.72" vector-effect="non-scaling-stroke"/><path stroke="#35699d" d="m159.5 147.54-.75-.33" vector-effect="non-scaling-stroke"/><path stroke="#3b79b0" d="m168.04 162.25.75 4" vector-effect="non-scaling-stroke"/><path stroke="#35699d" d="m168.79 166.25 1.18 8.91" vector-effect="non-scaling-stroke"/><path stroke="#2c4c6a" d="M169.97 175.16c-.04.83.71 9.1.7 9.1q-.34.38-.5-.1c-1.14-3.46-.41-7.27-1.71-10.41" vector-effect="non-scaling-stroke"/><path stroke="#113e77" d="M218.4 417.22q-10.22 5.63-18.53 13.79-.4.39-.94.27-1.52-.32-1.84-1.87-.12-.55-.63-.35c-1.37.52-2.81 1.96-4.29 1.1a.62.62 0 0 1-.05-1.03q7.51-5.57 16.16-9.16.8-.34-.01-.63c-1.57-.58-11.82 3.69-13.93 4.5-3.56 1.38-6.3 3.37-9.2 5.69a.82.82 0 0 1-1.25-.28l-.39-.79" vector-effect="non-scaling-stroke"/><path stroke="#0d3260" d="M232.2 400.88 217.04 408" vector-effect="non-scaling-stroke"/><path stroke="#051a36" d="m216.25 404.29.79 3.71" vector-effect="non-scaling-stroke"/><path stroke="#0d2e55" d="m217.04 408-1.29.46" vector-effect="non-scaling-stroke"/><path stroke="#041122" d="M215.75 408.46v-.41q0-.48-.43-.68l-30.25-14m-2.07-1.41-.75-1.42m-9.29 21.96-1.67-.5" vector-effect="non-scaling-stroke"/><path stroke="#04162d" d="m171.29 412-4.16-31.55c-.19-1.38.05-2.91-.84-4.45" vector-effect="non-scaling-stroke"/><path stroke="#051a36" d="M166.29 374.5v1.5" vector-effect="non-scaling-stroke"/><path stroke="#06234a" d="m166.29 376-.32.44q-.25.34-.35.76-3.74 15.85-5.75 31.63" vector-effect="non-scaling-stroke"/><path stroke="#061e3f" d="m159.87 408.83 4.08 19.03a.54.54 0 0 1-.89.52q-2.64-2.33-5.95-4.04-12.03-6.21-24.57-11.34" vector-effect="non-scaling-stroke"/><path stroke="#0e3769" d="M132.54 413q4.53-4.78 10.94-6.35" vector-effect="non-scaling-stroke"/><path stroke="#184b84" d="m143.48 406.65 14.54 1.13q1.78.14.34-.92l-23.95-17.54" vector-effect="non-scaling-stroke"/><path stroke="#124076" d="m134.41 389.32-18.37.43" vector-effect="non-scaling-stroke"/><path stroke="#103763" d="M132.94 129.98q-4.29 3.09-9.29 3.76-.35.05-.4.41-.03.17-.04.35" vector-effect="non-scaling-stroke"/><path stroke="#3872aa" d="M145.23 114.73q-.25.27-.24.93 0 .51-.32.91-2.3 2.95-5.51 4.81-.47.28-.3.79c1.18 3.51 4.04 14.25 7.19 16.02q6.84 3.85 12.7 9.02" vector-effect="non-scaling-stroke"/><path stroke="#19508c" d="m158.75 147.21-9.96-1.21" vector-effect="non-scaling-stroke"/><path stroke="#3872aa" d="m148.79 146-.25-.43q-.16-.28-.35-.03-.12.16-.23.21" vector-effect="non-scaling-stroke"/><path stroke="#174c85" d="M147.96 145.75c-2.01-.29-7.33-4.93-9.28-6.31q-.39-.28-.41-.75-.09-1.58-1.42-2.44-.46-.3-.63-.81-1.03-3.23-3.28-5.46" vector-effect="non-scaling-stroke"/><path stroke="#154476" d="M132.94 129.98q-4.89-2.12-9.35.62" vector-effect="non-scaling-stroke"/><path stroke="#103358" d="m123.59 130.6-.13-1.85" vector-effect="non-scaling-stroke"/><path stroke="#154476" d="M123.46 128.75q.92-.52 1.26-1.51 1.45-4.26 4.78-7.28" vector-effect="non-scaling-stroke"/><path stroke="#103358" d="m129.5 119.96 4.35.69q.46.07.67-.34l1.55-3.09q.25-.5-.31-.61-3.1-.56-5.46-2.69-.46-.42-.9.02l-2.56 2.6" vector-effect="non-scaling-stroke"/><path stroke="#154476" d="M126.84 116.54q-.05-4.08 2.13-7.44" vector-effect="non-scaling-stroke"/><path stroke="#082243" d="m122.29 119.25-.56 15.76" vector-effect="non-scaling-stroke"/><path stroke="#0d3361" d="M121.73 135.01q-5.67-.27-11.23 1.03" vector-effect="non-scaling-stroke"/><path stroke="#0a2f61" d="m110.5 136.04-4.53-.66" vector-effect="non-scaling-stroke"/><path stroke="#082243" d="m113.8 118.17 2.84 2.62q.5.47.89-.09l1.47-2.12q.33-.47.05-.97-1.42-2.61-4.01-3.86" vector-effect="non-scaling-stroke"/><path stroke="#0a2947" d="m122.96 150.5-2.59-2.71" vector-effect="non-scaling-stroke"/><path stroke="#0a2b54" d="m120.37 147.79-7.12-10.51q-.29-.43-.8-.45l-2.42-.06q-.39-.01-.13-.3.26-.27.6-.43" vector-effect="non-scaling-stroke"/><path stroke="#081e36" d="M126.84 116.54q-.21 2.57 2.66 3.42m-6.04 8.79c-.52-2.94.91-5.75-.08-9.17q-.11-.37-.49-.35l-.6.02" vector-effect="non-scaling-stroke"/><path stroke="#0d3361" d="m122.29 119.25-.29-9.46" vector-effect="non-scaling-stroke"/><path stroke="#0d3156" d="m109.04 162 .46-.79" vector-effect="non-scaling-stroke"/><path stroke="#4b6d89" d="M109.5 161.21q.17.12.29.32.86 1.57.51-.29l-.55-2.95" vector-effect="non-scaling-stroke"/><path stroke="#0d3156" d="m109.75 158.29.29-.29" vector-effect="non-scaling-stroke"/><path stroke="#2e577b" d="M110.04 158q1.34-1.57.46-3.54" vector-effect="non-scaling-stroke"/><path stroke="#0c2a4c" d="M220 435.71h-7" vector-effect="non-scaling-stroke"/><path stroke="#113e77" d="M211.15 435.48q.73-.13 1.85.23" vector-effect="non-scaling-stroke"/><path stroke="#082243" d="M213 435.71q-8.48 2.21-15.44 1.15-2.84-.43-4.34-.21-.49.07-.95-.09-3.14-1.08-6.39-.71" vector-effect="non-scaling-stroke"/><path stroke="#1b4f85" d="M273.75 421.71q-15.53 5.53-30.84 11.66-3.13 1.26-6.41 2.09" vector-effect="non-scaling-stroke"/><path stroke="#163e67" d="m236.5 435.46-13 .25" vector-effect="non-scaling-stroke"/><path stroke="#a7c5dd" d="M150.21 110q3.55 2.16 6.04 5.46" vector-effect="non-scaling-stroke"/><path stroke="#72a1c9" d="M156.25 115.46q-5.59.6-11.02-.73" vector-effect="non-scaling-stroke"/><path stroke="#5688b8" d="M145.23 114.73q-1.58-3.24-4.23-5.02" vector-effect="non-scaling-stroke"/><path stroke="#0c2a4c" d="M215.75 408.46 201 414.54" vector-effect="non-scaling-stroke"/><path stroke="#061e3f" d="m94.25 432.96.04-.96" vector-effect="non-scaling-stroke"/><path stroke="#051a36" d="M171.29 412q.32 1.47-.58 2.09-.49.34-.99-.01-4.58-3.25-9.85-5.25" vector-effect="non-scaling-stroke"/><path stroke="#0d2e55" d="M132.54 413q-18.29 9.55-36.74 18.78-.71.36-1.51.22" vector-effect="non-scaling-stroke"/><path stroke="#0e3769" d="M94.29 432c2.03-9.58 7.72-12.6 14.25-19.16q.73-.74-.28-.5-5.04 1.16-9.54 3.4c-4.15 2.07-5.68 7.01-6.26 11.26" vector-effect="non-scaling-stroke"/><path stroke="#113e77" d="M92.46 427c-2.6.13-5.18-5.09-6.5-7" vector-effect="non-scaling-stroke"/><path stroke="#0e3769" d="M85.96 420c3-3.25 6.34-4.9 9.29-7.74q1.08-1.05-.3-.43c-3.08 1.38-5.88 3.03-9.03 4.33-4.17 1.71-7.67 11.05-8.71 14.14-.31.92-.75 1.21-1.71.91" vector-effect="non-scaling-stroke"/><path stroke="#113b6a" d="m75.5 431.21-3.61-9.57q-.19-.51.23-.85l10.42-8.54" vector-effect="non-scaling-stroke"/><path stroke="#113e77" d="M82.54 412.25q2.31-.9 2.71-3.04" vector-effect="non-scaling-stroke"/><path stroke="#1c5692" d="m85.25 409.21.76-.59q.34-.27.77-.33c5.64-.81 11.92-.05 16.69-.91q5.41-.98 10.56-3.1" vector-effect="non-scaling-stroke"/><path stroke="#2364a7" d="m134.41 389.32-7.16 12.72" vector-effect="non-scaling-stroke"/><path stroke="#1f609f" d="M127.25 402.04c-1.72-.28-9.76-9.74-11.5-11.58" vector-effect="non-scaling-stroke"/><path stroke="#1f5b9a" d="M143.48 406.65 127.21 403" vector-effect="non-scaling-stroke"/><path stroke="#266bad" d="m127.21 403 .04-.96" vector-effect="non-scaling-stroke"/><path stroke="#649acb" d="m140.45 109.07.55.64" vector-effect="non-scaling-stroke"/><path stroke="#2a6bab" d="m141 109.71-12.03-.61" vector-effect="non-scaling-stroke"/><path stroke="#235689" d="m128.97 109.1-6.97.69" vector-effect="non-scaling-stroke"/><path stroke="#225a96" d="M122 109.79q-1.93.56-4.15-.42" vector-effect="non-scaling-stroke"/><path stroke="#072547" d="m120.37 147.79-9.99 4.35q-.53.24-.62.81-.13.91.74 1.51" vector-effect="non-scaling-stroke"/><path stroke="#2e5987" d="m110.5 154.46-.5.08" vector-effect="non-scaling-stroke"/><path stroke="#0d3363" d="M110 154.54q-.42.05-1.04-.21" vector-effect="non-scaling-stroke"/><path stroke="#2e5987" d="M108.96 154.33q-1.55.71-1.63 2.52-.02.5.47.39.23-.06.39-.24" vector-effect="non-scaling-stroke"/><path stroke="#0d3363" d="M108.19 157q.02.77-.94.54" vector-effect="non-scaling-stroke"/><path stroke="#336597" d="m110 154.54.04 3.46" vector-effect="non-scaling-stroke"/><path stroke="#517ba5" d="M109.75 158.29q-1.41 1.25-.25 2.92" vector-effect="non-scaling-stroke"/><path stroke="#0a2f61" d="M85.96 420c-1.32 1.44-7.07 8.75-5.59 10.64a1.24 1.23 64.4 0 0 1.27.45l10.4-2.49q.48-.12.46-.61l-.04-.99" vector-effect="non-scaling-stroke"/><path stroke="#0a2b54" d="m75.5 431.21-7.35-.43a.67.67 0 0 1-.58-.93l3.11-7.4q.26-.61-.4-.69-.56-.06-1.03.45" vector-effect="non-scaling-stroke"/><path stroke="#1c5692" d="m127.21 403-3.46-.04" vector-effect="non-scaling-stroke"/><path stroke="#2d72b2" d="M123.75 402.96q.2-.65-.25-.71-9.19-1.32-16.04-3.25" vector-effect="non-scaling-stroke"/><path stroke="#174e8a" d="M85.25 409.21c-2.34 1.86-5.25 2.29-7.37 3.41q-4.75 2.51-9.34 5.32-.41.25-.86.06l-.68-.29" vector-effect="non-scaling-stroke"/><path stroke="#27629f" d="m123.75 402.96-9.72 1.32" vector-effect="non-scaling-stroke"/><path stroke="#2d72b2" d="M114.03 404.28q-12.84 1.13-25.64.81" vector-effect="non-scaling-stroke"/><path stroke="#0d3361" d="M82.54 412.25q-7.42 2.9-12.81 8.75c-.31.33-.36.79-.48 1.21" vector-effect="non-scaling-stroke"/><path stroke="#0a2f61" d="M69.25 422.21q-3.04 3.69-5.1 8.13" vector-effect="non-scaling-stroke"/><path stroke="#336597" d="m108.96 154.33-.77 2.67" vector-effect="non-scaling-stroke"/></g><path fill="#fff" d="M0 0h512v512H0V0Zm175.66 76.78q-12.18 4.24-22.98 11.36-5.12.88-8.64 4.61l-8.47 9.52q-.4.45.15.68.57.24 1.28-.24l4.28.69q.5.08.92.37l8.05 5.52-.04.71q-4.73-1.72-9.76-.93-11.55-7.48-22.6.3l-2.81 4.38q-1.19 2.12-1.24 4.42l-7.83 17.21c.36 7.02-2.81 14.26 1.28 22.16q.43 2.4 1.79 4.46.36 3.06 2.19 5.56.3.41.27.93-.1 1.61 1.26 3.2 2.42 4.71 6.16 9.3.41.49 1.04.58l4.31.54q.52.07.81-.37l3.79-5.87q5.78 8.62 8.17 18.63l4.63 20.16q-4.12 21.67-7.86 43.19c-1.81 10.45-1.9 21.16-2.77 31.9q-4.86 19.42-8.74 39.06-.88 4.44-1.26 8.94l-5 52-.29.71-8.29 8.54-19.07 6.09Q77.07 410 67 417.71q-4.81 4.23-7.45 10.21-.31.69.4.94l4.2 1.48q2.69 1.31 4.85 1.41 12.63.6 25.25 1.21 34.4-.7 68.76-2.45.55-.03.84-.49 5.27-8.39 9.11-17.52L183 391.96l2.07 1.41q7.49 11.1 15.93 21.17l-17.5 13.92q-1.77 1.63-1.98 4-.04.5.37.77l3.99 2.62q6.14 2.17 12.62 2.17 18.88.01 37.75-.56 33.75-.3 67.5-.96 1.91-.04 2.54-.75 2.74-2.02 5.96-3.04l3.25.25 38.1.52q4.38.77 8.84-.2l54.56-.99q1.17.6 1.69-.35l12.6-22.94 13.16-21.49q2.86-21.49 3.98-43.33-.14-1.26-.93-2.47-8.51-23.06-17.93-45.78c-7.42-17.91-14.65-30.36-25.53-48.26q-4.05-6.68-8.97-12.73c-10.38-12.77-17.22-20.95-26.87-30.39q-34.08-33.29-68.66-66.05-22.47-23.82-43.04-49.3-.31-.39-.8-.52l-.66-.18-.54-.54-.49-.9q-.23-.43-.72-.45c-9.75-.39-20.32.43-29.86-1.51q-23.72-4.82-47.77-8.32Z"/><path fill="#bfd3e3" d="M254.5 87.96c-2.91 2.93 22.43 61.38 25.4 68.48q.1.24-.15.31-.14.04-.25.04l-21.25-30.08-1.48-2.16-27.53-37.09a.92.92 0 0 0-1.59.22q-2.87 7.41-7.65 14.11l-1.49-.43-13.39-8.91-29.46-15.67q24.05 3.5 47.77 8.32c9.54 1.94 20.11 1.12 29.86 1.51q.49.02.72.45l.49.9Z"/><path fill="#a7c6e2" d="m175.66 76.78 29.46 15.67q-5.88 1.09-11.37.84-2.21-.3-2.94-.58-11.08-4.17-22.52-6.53l-15.61 1.96q10.8-7.12 22.98-11.36Z"/><path fill="#548bbb" d="M168.29 86.18q-2.66 3.6-6.26 5.38-.46.23-.49.75-.03.53-.29.9l-2 .25-13 4q.05-2.99-2.21-4.71 3.52-3.73 8.64-4.61l15.61-1.96Z"/><path fill="#699aca" d="M168.29 86.18q11.44 2.36 22.52 6.53.73.28 2.94.58l.25.92q-6.42 1.36-12.5 3.83l-1.5.25-1.5-.33c-1.91-1.11-4.43-1.19-5.99-1.63l-11.26-3.12q.26-.37.29-.9.03-.52.49-.75 3.6-1.78 6.26-5.38Z"/><path fill="#a7c6e2" d="m256.77 124.55-36.02-21.84-.75-.92q4.78-6.7 7.65-14.11a.92.92 0 0 1 1.59-.22l27.53 37.09Z"/><path fill="#387dbe" d="m254.5 87.96.54.54q4.76 7.95 12.9 19.56 32.73 46.62 58.16 81.04.08.11.17.01.08-.09.2-.19.11-.08.05-.2-13.24-24.84-27.2-49.28-.27-.48.22-.94 34.58 32.76 68.66 66.05c9.65 9.44 16.49 17.62 26.87 30.39q4.92 6.05 8.97 12.73c10.88 17.9 18.11 30.35 25.53 48.26q9.42 22.72 17.93 45.78-1.48-.07-2.94-1.77-9.1-10.65-27.55-30.06.2-.78-.97-.63l.46-.46 12.02-12.81a.18.18 0 0 0-.19-.3l-31.86 11.63q-1.89.42-3.43 1.69l-.53-.58q-.34-.36-.39-.86c-.19-1.76-1.7-17.4-2.62-17.35l.21-1.21q4.44-21.34 8.61-42.74.29-1.48-.24-2.94-.18-.47.08-.91c.78-1.28-.37-2.02-1.54-2.23-4.13-.72-45.71-8.74-45.91-8.43l-.58-.44q-10.99-20.73-22.94-40.43a.36.35 45.5 0 0-.6-.01l-17.94 28.68q-1.81-2.02-4.25-7.47-11.85-26.42-23.86-52.93-.08-1.24-1.04-2.36.11 0 .25-.04.25-.07.15-.31c-2.97-7.1-28.31-65.55-25.4-68.48Z"/><path fill="#8fb7d7" d="m255.04 88.5.66.18q.49.13.8.52 20.57 25.48 43.04 49.3-.49.46-.22.94 13.96 24.44 27.2 49.28.06.12-.05.2-.12.1-.2.19-.09.1-.17-.01-25.43-34.42-58.16-81.04-8.14-11.61-12.9-19.56Z"/><path fill="#296fb5" d="M144.04 92.75q2.26 1.72 2.21 4.71-5.39 1.35-9.25 5.25-.71.48-1.28.24-.55-.23-.15-.68l8.47-9.52Z"/><path fill="#8fb7d7" d="m205.12 92.45 13.39 8.91q-9.64-.65-18.09-5.15-.45-.24-.96-.22l-1.71.05-3.75-1.83-.25-.92q5.49.25 11.37-.84Zm-43.87.76 11.26 3.12c1.56.44 4.08.52 5.99 1.63-.47.23-.79.58-1.31.67q-7.74 1.37-15.4 3.12L160 94.21q.07-.23.36-.39.45-.25-.06-.29l-1.05-.07 2-.25Z"/><path fill="#a7c6e2" d="m159.25 93.46 1.05.07q.51.04.06.29-.29.16-.36.39c-1.81.09-9.02 6.54-10.87 8.02q-.37.3.05.51c10.77 5.61 20.83 12.79 31.43 18.34a.44.43 16.8 0 0 .64-.34l.04-.49 1.54 1.94q.41.52-.26.54c-.22.01-3.31 4.38-4.07 5.06l-3.41-1.69q1.09-2.98-.26-5.25-.91-1.53-3.87-2.75-10.41-4.3-20.71-8.81l-8.05-5.52q-.42-.29-.92-.37l-4.28-.69q3.86-3.9 9.25-5.25l13-4Z"/><path fill="#bfd3e3" d="m160 94.21 1.79 7.54 11.92 10 7.58 8.5-.04.49a.44.43 16.8 0 1-.64.34c-10.6-5.55-20.66-12.73-31.43-18.34q-.42-.21-.05-.51c1.85-1.48 9.06-7.93 10.87-8.02Z"/><path fill="#548bbb" d="m194 94.21 3.75 1.83 13.35 9.21a2.47 2.46-38.1 0 0 2.29.27l7.36-2.81 36.02 21.84 1.48 2.16q-.11.06-.21.13-.23.18-.21.47c.17 2.57 1.75 25.11.92 25.48l-1.54-1.29c.14-.73.13-1.18-.33-1.8q-17.1-23.22-35.26-45.64-.35-.43-.49.11c-.64 2.53-.1 5.4-.11 7.3q-.03 5.84-.02 11.66.01.44-.41.59-.17.07-.34.07-.12-.04-.25-.08l-7.54-15.76q-.45-1.73-2.61-2.16-6.21-3.46-13.37-3.23l-4.48 1.98q-.33-1.41 1.51-1.63 1.02-.12.28-.82c-2.69-2.55-11.33-2.36-12.29-4.05q6.08-2.47 12.5-3.83Z"/><path fill="#699aca" d="m197.75 96.04 1.71-.05q.51-.02.96.22 8.45 4.5 18.09 5.15l1.49.43.75.92-7.36 2.81a2.47 2.46-38.1 0 1-2.29-.27l-13.35-9.21Z"/><path fill="#a7c6e2" d="m178.5 97.96 1.5.33 3.54 8.96c-2.97 1.39-7.88 1.94-9.83 4.5l-11.92-10q7.66-1.75 15.4-3.12c.52-.09.84-.44 1.31-.67Z"/><path fill="#387dbe" d="M181.5 98.04c.96 1.69 9.6 1.5 12.29 4.05q.74.7-.28.82-1.84.22-1.51 1.63l-5.59 2.17a.81.81 0 0 0-.25 1.35q.93.86 2.51.44l1.08.54q3.02 3.41 6.79 5.96c.55 3.66 9.21 2.66 12.17 2.75l10.79 6.29q.67.31 1 .88.28.47-.2.75l-5.8 3.37c-8.12-5.06-16.4-10.75-23.97-13.66q-.68-.27-.32.37L203.29 139l-5.78 6.89q-.32.38-.45.86-.41 1.5-2.02 1.25l-11.5-40.75-3.54-8.96 1.5-.25Z"/><path fill="#8fb7d7" d="m209.85 105.79-4.85-.25-8.52-2.98q7.16-.23 13.37 3.23Z"/><path fill="#1c5998" d="m196.48 102.56 8.52 2.98q4.07 4.43 4.46 10.46l-.75 1.75c-2.96-.09-11.62.91-12.17-2.75l5.88.24q.5.02.92-.25 1.2-.77 2.66-.28.74 1.21 1.9 1.43.8.14.42-.57l-2.81-5.41q-1.43-5.06-6.81-5.58-.4-.04-.31.35.28 1.2 1.36 2.03-5.62-.02-11.08 1.54-1.58.42-2.51-.44a.81.81 0 0 1 .25-1.35l5.59-2.17 4.48-1.98Z"/><path fill="#387dbe" d="m257.21 151.5-35.96-26.29-1-1.42q.17 0 .34-.07.42-.15.41-.59-.01-5.82.02-11.66c.01-1.9-.53-4.77.11-7.3q.14-.54.49-.11 18.16 22.42 35.26 45.64c.46.62.47 1.07.33 1.8Z"/><path fill="#548bbb" d="M205.51 110.16q-2.56-2.48-5.76-3.2-1.08-.83-1.36-2.03-.09-.39.31-.35 5.38.52 6.81 5.58Z"/><path fill="#387dbe" d="m140.45 109.07.55.64-12.03-.61-6.97.69q-1.93.56-4.15-.42 11.05-7.78 22.6-.3Z"/><path fill="#296fb5" d="m205 105.54 4.85.25q2.16.43 2.61 2.16.01 4.66-1.42 8.93-.13.37-.52.37h-.51q-.47 0-.5-.47l-.05-.78q-.39-6.03-4.46-10.46Z"/><path fill="#072753" d="M199.75 106.96q3.2.72 5.76 3.2l2.81 5.41q.38.71-.42.57-1.16-.22-1.9-1.43l.01-.73q.01-.58-.56-.48-.23.04-.41 0c-3.25-4.25-6.33-5.36-11.58-4.2l-3.71-.26-1.08-.54q5.46-1.56 11.08-1.54Z"/><path fill="#8fb7d7" d="m183.54 107.25 11.5 40.75q-.04.13-.08.25-10.08-.11-16.82 7.01a.76.75-31.2 0 1-1.27-.31c-2.4-8.29.62-18.71 1.63-27.16.76-.68 3.85-5.05 4.07-5.06q.67-.02.26-.54l-1.54-1.94-7.58-8.5c1.95-2.56 6.86-3.11 9.83-4.5Z"/><path fill="#2266a5" d="m212.46 107.95 7.54 15.76-.5.33-10.79-6.29.75-1.75.05.78q.03.47.5.47h.51q.39 0 .52-.37 1.43-4.27 1.42-8.93Z"/><path fill="#8fb7d7" d="M150.21 110q3.55 2.16 6.04 5.46-5.59.6-11.02-.73-1.58-3.24-4.23-5.02l-.55-.64q5.03-.79 9.76.93Z"/><path fill="#030d18" d="M205.04 113.5c-1.25 2.78-10.23-3.17-11.58-4.2 5.25-1.16 8.33-.05 11.58 4.2Z"/><path fill="#1c5998" d="M141 109.71q2.65 1.78 4.23 5.02-.25.27-.24.93 0 .51-.32.91-2.3 2.95-5.51 4.81-.47.28-.3.79c1.18 3.51 4.04 14.25 7.19 16.02q6.84 3.85 12.7 9.02l-9.96-1.21-.25-.43q-.16-.28-.35-.03-.12.16-.23.21c-2.01-.29-7.33-4.93-9.28-6.31q-.39-.28-.41-.75-.09-1.58-1.42-2.44-.46-.3-.63-.81-1.03-3.23-3.28-5.46-4.89-2.12-9.35.62l-.13-1.85q.92-.52 1.26-1.51 1.45-4.26 4.78-7.28l4.35.69q.46.07.67-.34l1.55-3.09q.25-.5-.31-.61-3.1-.56-5.46-2.69-.46-.42-.9.02l-2.56 2.6q-.05-4.08 2.13-7.44l12.03.61Z"/><path fill="#0c366e" d="m189.75 109.04 3.71.26c1.35 1.03 10.33 6.98 11.58 4.2q.18.04.41 0 .57-.1.56.48l-.01.73q-1.46-.49-2.66.28-.42.27-.92.25l-5.88-.24q-3.77-2.55-6.79-5.96Z"/><path fill="#0d2f54" d="M128.97 109.1q-2.18 3.36-2.13 7.44-.21 2.57 2.66 3.42-3.33 3.02-4.78 7.28-.34.99-1.26 1.51c-.52-2.94.91-5.75-.08-9.17q-.11-.37-.49-.35l-.6.02-.29-9.46 6.97-.69Z"/><path fill="#bfd3e3" d="M150.25 109.29q10.3 4.51 20.71 8.81 2.96 1.22 3.87 2.75 1.35 2.27.26 5.25l-16.8-8.35-2.04-2.29q-2.49-3.3-6.04-5.46l.04-.71Z"/><path fill="#0c366e" d="M117.85 109.37q2.22.98 4.15.42l.29 9.46-.56 15.76q-5.67-.27-11.23 1.03l-4.53-.66 7.83-17.21 2.84 2.62q.5.47.89-.09l1.47-2.12q.33-.47.05-.97-1.42-2.61-4.01-3.86l2.81-4.38Z"/><path fill="#030d18" d="M115.04 113.75q2.59 1.25 4.01 3.86.28.5-.05.97l-1.47 2.12q-.39.56-.89.09l-2.84-2.62q.05-2.3 1.24-4.42Zm14.46 6.21q-2.87-.85-2.66-3.42l2.56-2.6q.44-.44.9-.02 2.36 2.13 5.46 2.69.56.11.31.61l-1.55 3.09q-.21.41-.67.34l-4.35-.69Z"/><path fill="#548bbb" d="M145.23 114.73q5.43 1.33 11.02.73l2.04 2.29c1.39 6.77 4.15 12.51 6.81 21.43q.9 2.98 3.31 7.64l-8.91.72-.75-.33q-5.86-5.17-12.7-9.02c-3.15-1.77-6.01-12.51-7.19-16.02q-.17-.51.3-.79 3.21-1.86 5.51-4.81.32-.4.32-.91-.01-.66.24-.93Z"/><path fill="#2266a5" d="M214.5 129.04q5.55 15.68 6.98 25.22 1.8 11.91 3.53 17.55 1.45 3.59.68 6.83l-20.19 3.32-.54-.71c.02-.6.11-1.04-.09-1.64q-4.94-15.08-9.37-30.32.14-.03.27-.04.22-.01.38.14l26.44 26.74a.75.75 0 0 0 1.2-.87q-9.71-18.67-20.5-36.26l-13.08-23.25q-.36-.64.32-.37c7.57 2.91 15.85 8.6 23.97 13.66Z"/><path fill="#699aca" d="m158.29 117.75 16.8 8.35 3.41 1.69c-1.01 8.45-4.03 18.87-1.63 27.16a.76.75-31.2 0 0 1.27.31q6.74-7.12 16.82-7.01l.54 1.04q4.43 15.24 9.37 30.32c.2.6.11 1.04.09 1.64q-6.68-5.87-12.45-12.64-.34-.39-.85-.47l-4.66-.68-9.7-9.1-8.89-11.54q-2.41-4.66-3.31-7.64c-2.66-8.92-5.42-14.66-6.81-21.43Z"/><path fill="#030d18" d="m123.46 128.75.13 1.85q-1.11 1.44-.38 3.9l.08.5.5 2.25q1.27 7.01 5.15 13.04.3.47.81.71l2.29 1.06q.64.29.15.8c-3.46 3.6-7.51 6.53-9.82 11.09q-.25.49.08.94 3.8 5.19 6.42 10.98l-3.79 5.87q-.29.44-.81.37l-4.31-.54q-.63-.09-1.04-.58-3.74-4.59-6.16-9.3 1.71-5.51 1.78-7.9.16-5 3.99-7.73.39-.28.54-.75c.84-2.6 3.22-3.03 3.89-4.81q.7-7.83-1.23-15.49l.56-15.76.6-.02q.38-.02.49.35c.99 3.42-.44 6.23.08 9.17Z"/><path fill="#296fb5" d="M220 123.71q.13.04.25.08l1 1.42q3.15 23.14 3.76 46.6-1.73-5.64-3.53-17.55-1.43-9.54-6.98-25.22l5.8-3.37q.48-.28.2-.75-.33-.57-1-.88l.5-.33Z"/><path fill="#1c5998" d="m221.25 125.21 35.96 26.29 1.54 1.29q.42.6.5 2.21 1.16 22.37 1.96 44.75c-.27-.65-.7-.65-1.22-.25q-8.31 6.32-16.97 12.24-.46.32-.7-.19-7.82-16.65-16.63-32.91.77-3.24-.68-6.83-.61-23.46-3.76-46.6Z"/><path fill="#2266a5" d="m258.25 126.71 21.25 30.08q.96 1.12 1.04 2.36l-18.63 38.69q-.47.98.52 1.43l44.31 20a.75.75 0 0 1-.16 1.42l-37.8 7.21q-3.63-13.2-6.78-26.15-.12-.49-.79-1.25v-.75q-.8-22.38-1.96-44.75-.08-1.61-.5-2.21c.83-.37-.75-22.91-.92-25.48q-.02-.29.21-.47.1-.07.21-.13Z"/><path fill="#0d2f54" d="M132.94 129.98q-4.29 3.09-9.29 3.76-.35.05-.4.41-.03.17-.04.35-.73-2.46.38-3.9 4.46-2.74 9.35-.62Z"/><path fill="#123f72" d="M132.94 129.98q2.25 2.23 3.28 5.46.17.51.63.81 1.33.86 1.42 2.44.02.47.41.75c1.95 1.38 7.27 6.02 9.28 6.31q1.44 8.62.33 17.25-2.95-.08-3.44-2.77-.09-.48-.58-.48h-.48l1.02-11.69q.03-.38-.34-.3c-.1.02-1.41 9.55-1.72 10.78l-2.91-3.25c.05-.57.6-6.4-.32-6.3q-.36.05-.32.41.35 3.34-.95 6.39-1.72-.75-1.67-2.74.01-.69-.66-.54-1.13.25-.81-.81.09.19.23.25.41.17.41-.27v-3.1q0-.25-.24-.17l-.53.18a.4.4 0 0 1-.52-.47l1.98-8.9q.13-.56-.42-.71L123.29 135l-.08-.5q.01-.18.04-.35.05-.36.4-.41 5-.67 9.29-3.76Z"/><path fill="#0d2f54" d="M121.73 135.01q1.93 7.66 1.23 15.49l-2.59-2.71-7.12-10.51q-.29-.43-.8-.45l-2.42-.06q-.39-.01-.13-.3.26-.27.6-.43 5.56-1.3 11.23-1.03Zm1.56-.01 12.73 3.51q.55.15.42.71l-1.98 8.9a.4.4 0 0 0 .52.47l.53-.18q.24-.08.24.17v3.1q0 .44-.41.27-.14-.06-.23-.25l-10.33-14.11q-.26-.36-.7-.32-.15.02-.29-.02l-.5-2.25Z"/><path fill="#072753" d="m105.97 135.38 4.53.66q-.34.16-.6.43-.26.29.13.3l2.42.06q.51.02.8.45l7.12 10.51-9.99 4.35q-.53.24-.62.81-.13.91.74 1.51l-.5.08q-.42.05-1.04-.21-1.55.71-1.63 2.52-.02.5.47.39.23-.06.39-.24.02.77-.94.54c-4.09-7.9-.92-15.14-1.28-22.16Z"/><path fill="#07233a" d="M123.79 137.25q.14.04.29.02.44-.04.7.32l10.33 14.11q-.32 1.06.81.81.67-.15.66.54-.05 1.99 1.67 2.74l-1.38 8.45q-.04.24.2.27c.37.04 2.35-8.02 2.77-9.22l2.91 3.25-.88 11.46q-.01.12.12.16.13.05.27.09.18.06.21-.13l1.32-10.37h.48q.49 0 .58.48.49 2.69 3.44 2.77l-.98 10.03q-.15 1.49.24.04 1.1-4.18 1.45-8.36c1.66.14 2.68 2.52 4.21 1.29l-.17 7.24q-.04 1.53.34.04.8-3.22.41-6.53l4.59 2.04-1.8 9.16q-.29 1.5.32.1.86-1.96 1.63-4.99 7.61 6.41 11.66 13 4.32 7.01 11.11 21.67c.39.83 1.07 1.56 1.91.71q.34-.35.82-.46c3.86-.94 10.82-.95 13.82-2.94q.48-.32.67-.87l3.82-10.89a.93.86-82.1 0 0-.86-1.24c-1.4.13-8.79-6.55-10.23-7.75l13.75-1.58c.96.4-2 9.21-2.37 10.48q-.15.52.29.85l.29.21 20.58 23.5-.38.28q-.17.12-.34.03l-24.28-12.58q-.84-.44-.92.51L195.28 237q-.05.62-.65.44c-5.57-1.64-6.18-5.89-9.86-9.48-5.14-5-9.04-9.95-15.3-14.65a.84.84 0 0 0-1.33.52l-5.74 30.4q-.19 1.01-1.19.74c-2.5-.67-2.51-7.38-3.29-9.72q-.16-.5-.58-.83l-2.19-1.75q-.34-.27-.4-.7c-.35-2.35-2-3.66-2.71-5.51q-2.2-5.7-5.14-11.02-.22-.41-.18-.88c.32-3.35-1.99-4.78-3.26-7.8q-2.72-6.44-4.96-13.16-.21-.62-.72-.2-.47.39-.74 1.1-2.39-10.01-8.17-18.63-2.62-5.79-6.42-10.98-.33-.45-.08-.94c2.31-4.56 6.36-7.49 9.82-11.09q.49-.51-.15-.8l-2.29-1.06q-.51-.24-.81-.71-3.88-6.03-5.15-13.04Z"/><path fill="#296fb5" d="M203.29 139q10.79 17.59 20.5 36.26a.75.75 0 0 1-1.2.87l-26.44-26.74q-.16-.15-.38-.14-.13.01-.27.04l-.54-1.04q.04-.12.08-.25 1.61.25 2.02-1.25.13-.48.45-.86l5.78-6.89Z"/><path fill="#548bbb" d="M148.79 146c.24 5.03 1.39 9.67.5 14.75l-.29 3.96q-.35 4.18-1.45 8.36-.39 1.45-.24-.04l.98-10.03q1.11-8.63-.33-17.25.11-.05.23-.21.19-.25.35.03l.25.43Z"/><path fill="#15467f" d="m148.79 146 9.96 1.21.75.33q1.9 1.02 2.88 2.8c4.83 6.63 6.19 15.42 6.08 23.41-2.35-1.71-5.93-6.13-8.71-6.29.23-5.03 1.57-9.89.69-15.05q-.03-.16-.19-.16h-.3q-.21-.01-.2.2.47 8.26-1.37 16.34l-4.59-2.04c.03-1.15.74-13.62-.71-15.73q-.53-.77-.46.16l.61 8.14q-.66 2.5-3.94 1.43c.89-5.08-.26-9.72-.5-14.75Z"/><path fill="#1c5998" d="m168.41 146.82 8.89 11.54-9.26 3.89q-.6-7.1-5.66-11.91-.98-1.78-2.88-2.8l8.91-.72Z"/><path fill="#07233a" d="m120.37 147.79 2.59 2.71c-.67 1.78-3.05 2.21-3.89 4.81q-.15.47-.54.75-3.83 2.73-3.99 7.73-.07 2.39-1.78 7.9-1.36-1.59-1.26-3.2.03-.52-.27-.93-1.83-2.5-2.19-5.56l.46-.79q.17.12.29.32.86 1.57.51-.29l-.55-2.95.29-.29q1.34-1.57.46-3.54-.87-.6-.74-1.51.09-.57.62-.81l9.99-4.35Z"/><path fill="#548bbb" d="m143.79 159.75-1.32 10.37q-.03.19-.21.13-.14-.04-.27-.09-.13-.04-.12-.16l.88-11.46c.31-1.23 1.62-10.76 1.72-10.78q.37-.08.34.3l-1.02 11.69Zm-3.95-4.46c-.42 1.2-2.4 9.26-2.77 9.22q-.24-.03-.2-.27l1.38-8.45q1.3-3.05.95-6.39-.04-.36.32-.41c.92-.1.37 5.73.32 6.3Zm28.2 6.96.75 4 1.18 8.91c-.04.83.71 9.1.7 9.1q-.34.38-.5-.1c-1.14-3.46-.41-7.27-1.71-10.41.11-7.99-1.25-16.78-6.08-23.41q5.06 4.81 5.66 11.91Z"/><path fill="#8fb7d7" d="M153.79 166.75q.39 3.31-.41 6.53-.38 1.49-.34-.04l.17-7.24.02-6.68-.61-8.14q-.07-.93.46-.16c1.45 2.11.74 14.58.71 15.73Zm5.96.71q-1.35 3.19-1.22 5.6-.77 3.03-1.63 4.99-.61 1.4-.32-.1l1.8-9.16q1.84-8.08 1.37-16.34-.01-.21.2-.2h.3q.16 0 .19.16c.88 5.16-.46 10.02-.69 15.05Z"/><path fill="#548bbb" d="m108.96 154.33-.77 2.67q-.16.18-.39.24-.49.11-.47-.39.08-1.81 1.63-2.52Z"/><path fill="#123f72" d="M108.96 154.33q.62.26 1.04.21l.04 3.46-.29.29q-1.41 1.25-.25 2.92l-.46.79q-1.36-2.06-1.79-4.46.96.23.94-.54l.77-2.67Z"/><path fill="#548bbb" d="m110 154.54.5-.08q.88 1.97-.46 3.54l-.04-3.46Z"/><path fill="#8fb7d7" d="m109.75 158.29.55 2.95q.35 1.86-.51.29-.12-.2-.29-.32-1.16-1.67.25-2.92Z"/><path fill="#2266a5" d="m177.3 158.36 9.7 9.1-.75.33c-5.46-.4-12.42.51-17.46-1.54l-.75-4 9.26-3.89Z"/><path fill="#0d2f54" d="m153.23 159.32-.02 6.68c-1.53 1.23-2.55-1.15-4.21-1.29l.29-3.96q3.28 1.07 3.94-1.43Z"/><path fill="#296fb5" d="M280.54 159.15q12.01 26.51 23.86 52.93 2.44 5.45 4.25 7.47l1.35 21.16-.29.29-1.96 2.46L261.46 294h-.42l-.04-.96q.47-.41.55-1.03 3.67-29.15 7.04-58.33c.22-1.91.13-3.87.19-5.78l37.8-7.21a.75.75 0 0 0 .16-1.42l-44.31-20q-.99-.45-.52-1.43l18.63-38.69Z"/><path fill="#15467f" d="M168.79 166.25c5.04 2.05 12 1.14 17.46 1.54 2.19.11 3.76 13.93 4 16.17l-20.28-8.8-1.18-8.91Z"/><path fill="#030d18" d="M159.75 167.46c2.78.16 6.36 4.58 8.71 6.29 1.3 3.14.57 6.95 1.71 10.41q.16.48.5.1c.01 0-.74-8.27-.7-9.1l20.28 8.8 1 .33c1.44 1.2 8.83 7.88 10.23 7.75a.93.86-82.1 0 1 .86 1.24l-3.82 10.89q-.19.55-.67.87c-3 1.99-9.96 2-13.82 2.94q-.48.11-.82.46c-.84.85-1.52.12-1.91-.71q-6.79-14.66-11.11-21.67-4.05-6.59-11.66-13-.13-2.41 1.22-5.6Z"/><path fill="#1c5998" d="m187 167.46 4.66.68q.51.08.85.47 5.77 6.77 12.45 12.64l.54.71-.5.75-13.75 1.58-1-.33c-.24-2.24-1.81-16.06-4-16.17l.75-.33Z"/><path fill="#123f72" d="M225.69 178.64q8.81 16.26 16.63 32.91.24.51.7.19 8.66-5.92 16.97-12.24c.52-.4.95-.4 1.22.25v.75c-.34.29-.96.75-1.16 1.16q-5.88 12.38-11.22 25.01c-2.88 6.81-6.46 12.91-10.02 19.31q-.25.45-.03.92l7.18 15.85q-2.08 1.04-4.25 1.93c-5.16 2.12-10.28 6.58-14.75 9.95q-3.27 2.47-6.98 6.27c-4.82 4.94-7.89 7.63-14.55 9.31q-.44.12-.33.56.15.68-.56 1.23l-3.44-23.99q-.07-.51.34-.83 5.9-4.65 12.09-8.9c2.57-1.75 5.1-6.97 7.35-9.32q5.45-5.72 13.03-8.22.51-.17.25-.65-.36-.66.15-.97.44-.26.26-.74-3.5-8.95-8.32-17.25l-1.25-2.34 16.41-6.31a.43.43 0 0 0 .03-.79c-3.42-1.62-37.97-18.27-38.23-17.44l-.29-.21q-.44-.33-.29-.85c.37-1.27 3.33-10.08 2.37-10.48l.5-.75 20.19-3.32Z"/><path fill="#699aca" d="m350.13 231.31-40.13 9.4-1.35-21.16 17.94-28.68a.36.35 45.5 0 1 .6.01q11.95 19.7 22.94 40.43Z"/><path fill="#072753" d="m223.79 217.75 1 1-28.95 20.02q-.43.3-.35.82.75 4.88-4.16 5.81c-7.24 1.38-14.4 1.12-21.59 2.25q-2.98.47-6.02.51-.54.01-.97.36-.95.77-2.11.71-.56-.03-.79-.52-8.34-17.41-18.18-34.05l-4.63-20.16q.27-.71.74-1.1.51-.42.72.2 2.24 6.72 4.96 13.16c1.27 3.02 3.58 4.45 3.26 7.8q-.04.47.18.88 2.94 5.32 5.14 11.02c.71 1.85 2.36 3.16 2.71 5.51q.06.43.4.7l2.19 1.75q.42.33.58.83c.78 2.34.79 9.05 3.29 9.72q1 .27 1.19-.74l5.74-30.4a.84.84 0 0 1 1.33-.52c6.26 4.7 10.16 9.65 15.3 14.65 3.68 3.59 4.29 7.84 9.86 9.48q.6.18.65-.44l2.59-31.01q.08-.95.92-.51l24.28 12.58q.17.09.34-.03l.38-.28Z"/><path fill="#1c5998" d="m225 218.79-.21-.04-1-1-20.58-23.5c.26-.83 34.81 15.82 38.23 17.44a.43.43 0 0 1-.03.79L225 218.79Zm36.21-18.29q.67.76.79 1.25 3.15 12.95 6.78 26.15c-.06 1.91.03 3.87-.19 5.78q-3.37 29.18-7.04 58.33-.08.62-.55 1.03-.19-.01-.37-.04-.35-.05-.52-.37-7.73-14.63-14.15-29.88l-7.18-15.85q-.22-.47.03-.92c3.56-6.4 7.14-12.5 10.02-19.31q5.34-12.63 11.22-25.01c.2-.41.82-.87 1.16-1.16Z"/><path fill="#0d2f54" d="M141.67 214.66q9.84 16.64 18.18 34.05.23.49.79.52 1.16.06 2.11-.71.43-.35.97-.36 3.04-.04 6.02-.51c7.19-1.13 14.35-.87 21.59-2.25q4.91-.93 4.16-5.81-.08-.52.35-.82l28.95-20.02.21.04 1.25 2.34q-.29 1.47-1.32 2.24-.4.29-.5.77c-.66 2.96-2.87 15.26-5.27 16.47-3.46 1.76-6.33 4.55-8.93 7.4-2.76 3.03-7.2 4.51-10.54 7.06q-.39.3-.39.8.05 6.99-6.55 8.64c-1.61.41-3.53.08-5.39.56q-.48.12-.94-.03c-2.55-.83-8.09-3.48-10.28-1.52a1.5 1.49 47.2 0 0-.08 2.15q15.65 16.39 30.15 33.08l23.46 39.22q9.82 19.15 18.26 39.58.19.46.69.41.29-.04.59-.21-.03 1.08-.55 1.9-.31.48-.77.14l-23.73-16.97c-11.39-3.9-22.53-7.96-34.12-11.32q-19.48-19.87-40.15-38.52-4.65-4.19-6.5-6.25-3.7-4.12-5.12-7.49-.87-2.07-2.08-1.01l-3.63-7.87q-.21-.45-.71-.51l-.81-.1c.87-10.74.96-21.45 2.77-31.9q3.74-21.52 7.86-43.19Z"/><path fill="#0c366e" d="M226.25 221.13q4.82 8.3 8.32 17.25.18.48-.26.74-.51.31-.15.97.26.48-.25.65-7.58 2.5-13.03 8.22c-2.25 2.35-4.78 7.57-7.35 9.32q-6.19 4.25-12.09 8.9-.41.32-.34.83l3.44 23.99q.35 3.51 1.67 6.75-14.5-16.69-30.15-33.08a1.5 1.49 47.2 0 1 .08-2.15c2.19-1.96 7.73.69 10.28 1.52q.46.15.94.03c1.86-.48 3.78-.15 5.39-.56q6.6-1.65 6.55-8.64 0-.5.39-.8c3.34-2.55 7.78-4.03 10.54-7.06 2.6-2.85 5.47-5.64 8.93-7.4 2.4-1.21 4.61-13.51 5.27-16.47q.1-.48.5-.77 1.03-.77 1.32-2.24Z"/><path fill="#548bbb" d="m350.13 231.31.58.44 6.32 63.17q-2.3 1.46-2.96 3.47l-25.16 27.11q-.38.41-.87.15-6.99-3.69-13.87-7.64c-1.43-.82-1.33-1.5-1.19-3.01q1.18-12.45 1.48-28.25.01-.81-.27-1.85-1.31-21.92-4.48-43.9l.29-.29 40.13-9.4Z"/><path fill="#296fb5" d="M389.71 289q-15.97 3.26-31.93 6.52c-.26.05-.53.3-.74.48q-.12-.56-.01-1.08l-6.32-63.17c.2-.31 41.78 7.71 45.91 8.43 1.17.21 2.32.95 1.54 2.23q-.26.44-.08.91.53 1.46.24 2.94-4.17 21.4-8.61 42.74Z"/><path fill="#1c5998" d="M309.71 241q3.17 21.98 4.48 43.9-28.37 32.6-57.36 64.43-1.06 1.17-2.29 2.17-.16-.98.4-2.31 11.91-28.39 19.81-46 3.93-5.21 4.75-6.72 14.29-26.17 28.61-52.33.18-.33-.14-.54l-.22-.14 1.96-2.46Z"/><path fill="#15467f" d="m307.75 243.46.22.14q.32.21.14.54-14.32 26.16-28.61 52.33-.82 1.51-4.75 6.72-7.11-3.78-13.29-9.19l46.29-50.54Zm-61.79 19.29q6.42 15.25 14.15 29.88.17.32.52.37.18.03.37.04l.04.96-31.37 43.97-23.46-39.22q-1.32-3.24-1.67-6.75.71-.55.56-1.23-.11-.44.33-.56c6.66-1.68 9.73-4.37 14.55-9.31q3.71-3.8 6.98-6.27c4.47-3.37 9.59-7.83 14.75-9.95q2.17-.89 4.25-1.93Z"/><path fill="#296fb5" d="M314.19 284.9q.28 1.04.27 1.85-.3 15.8-1.48 28.25c-.14 1.51-.24 2.19 1.19 3.01q6.88 3.95 13.87 7.64.49.26.87-.15l25.16-27.11q-6.93 12.46-15.24 24.07c-2.79 3.9-5.01 7.71-7.41 11.68q-.25.42-.15.89l3.71 18.5-.51 1.99q-.12.45-.57.32l-17.22-4.85q-.51-.15-.93.18-19.69 15.46-38.04 32.47a1.59 1.58-43.3 0 1-2.23-.06q-4.3-4.45-7.52-9.76-.27-.45-.74-.68-1.69-.83-1.67-2.78 0-.47-.35-.79-1.07-.96-1.28-2.4-.06-.49-.4-.85l-6.48-7.09-3.4-5.58q-.27-.44-.08-.92.29-.72.98-1.23 1.23-1 2.29-2.17 28.99-31.83 57.36-64.43Z"/><path fill="#15467f" d="m389.71 289-.21 1.21q-23.85 41.57-48.19 82.85-.17.3-.02.94l-.83 1.75q-.86-.4-1.21.46l-38.72 27.86q16.03-23.8 33.66-47.51a.33.32 55.5 0 1 .57.11l4.47 15.84a.39.38 56.8 0 0 .67.14q.16-.2.19-.48c3.04-23.58 9.84-47.1 15.61-70.15.14-.56.02-1.44.01-2.02l1.33-4c.21-.18.48-.43.74-.48q15.96-3.26 31.93-6.52Z"/><path fill="#0c366e" d="m131.04 289.75.81.1q.5.06.71.51l3.63 7.87q12.04 31.12 25.06 61.77 1.47 3.46 4.71 12.75l-31.26-7.06a1.41 1.4 84 0 1-.99-.81q-5.72-13.03-11.12-26.1c-.3-.71-.82-.98-1.55-1.03q.38-4.5 1.26-8.94 3.88-19.64 8.74-39.06Z"/><path fill="#296fb5" d="M389.5 290.21c.92-.05 2.43 15.59 2.62 17.35q.05.5.39.86l.53.58q-.24 2.21-1.37 3.9-6.81 6.49-15.37 17.91-5.41 7.22-23.02 28.96c-.93 1.15-9.99 11.01-9.49 12.98l-2.5 1.25q-.15-.64.02-.94 24.34-41.28 48.19-82.85Z"/><path fill="#123f72" d="M261.04 294h.42q6.18 5.41 13.29 9.19-7.9 17.61-19.81 46-.56 1.33-.4 2.31-.69.51-.98 1.23-.19.48.08.92l3.4 5.58c1.54 2.72 16.82 28.13 16.46 28.48q-.12.04-.25.08l-21 2.92 1.06-32.61a.39.39 0 0 0-.77-.09q-2.18 9.81-3.33 19.74-.3.17-.59.21-.5.05-.69-.41-8.44-20.43-18.26-39.58L261.04 294Z"/><path fill="#387dbe" d="M357.03 294.92q-.11.52.01 1.08l-1.33 4q-.17.51-.56.84-.37.31-.53.76-9.19 26.06-19.64 51.93l-3.71-18.5q-.1-.47.15-.89c2.4-3.97 4.62-7.78 7.41-11.68q8.31-11.61 15.24-24.07.66-2.01 2.96-3.47Z"/><path fill="#8fb7d7" d="M416.5 308.79q-7.36-.59-14.75-.81-1.42-.04-5.28-.67l31.86-11.63a.18.18 0 0 1 .19.3l-12.02 12.81Z"/><path fill="#07233a" d="m190.04 351.5 1.2 2.89q-2.14 3.47-2.56 8.3-.53 6.18-3.55 23.49c-.18 1.01-.88 2.05-.57 3.43q.11.5-.3.8-.79.6-2.01.13l-14.86-16.06q-.33-.36-.78-.18-.18.06-.32.2l-.33-1.75q-3.24-9.29-4.71-12.75-13.02-30.65-25.06-61.77 1.21-1.06 2.08 1.01 1.42 3.37 5.12 7.49 1.85 2.06 6.5 6.25 20.67 18.65 40.15 38.52Z"/><path fill="#2266a5" d="M355.71 300c.01.58.13 1.46-.01 2.02-5.77 23.05-12.57 46.57-15.61 70.15q-.03.28-.19.48a.39.38 56.8 0 1-.67-.14l-4.47-15.84a.33.32 55.5 0 0-.57-.11q-17.63 23.71-33.66 47.51l-1.82 1.93-.92.25q-.01-.12-.04-.25-.04-.21-.22-.33-12-8.45-23.35-17.77-.16-.13-.38-.15-.15-.01-.3-.04c.36-.35-14.92-25.76-16.46-28.48l6.48 7.09q.34.36.4.85.21 1.44 1.28 2.4.35.32.35.79-.02 1.95 1.67 2.78.47.23.74.68 3.22 5.31 7.52 9.76a1.59 1.58-43.3 0 0 2.23.06q18.35-17.01 38.04-32.47.42-.33.93-.18l17.22 4.85q.45.13.57-.32l.51-1.99q10.45-25.87 19.64-51.93.16-.45.53-.76.39-.33.56-.84Z"/><path fill="#699aca" d="M396.47 307.31q3.86.63 5.28.67 7.39.22 14.75.81l-.46.46c-7.14 6.61-14.44 12.98-20.24 20.96q-10.32 14.22-20.84 28.29l-.71.21q9.44-22.52 17.42-45.81 1.13-1.69 1.37-3.9 1.54-1.27 3.43-1.69Z"/><path fill="#296fb5" d="M416.04 309.25q1.17-.15.97.63l-3.95 68.48-29.81 19.43-12.3-30.36 4.01-8.93q10.52-14.07 20.84-28.29c5.8-7.98 13.1-14.35 20.24-20.96Z"/><path fill="#2266a5" d="M417.01 309.88q18.45 19.41 27.55 30.06 1.46 1.7 2.94 1.77.79 1.21.93 2.47l-35.37 34.18 3.95-68.48Z"/><path fill="#387dbe" d="M391.67 312.9q-7.98 23.29-17.42 45.81c-.9.84-.76 1.06-2.03 1.61q-14.22 6.22-28.43 12.43c-.5-1.97 8.56-11.83 9.49-12.98q17.61-21.74 23.02-28.96 8.56-11.42 15.37-17.91Z"/><path fill="#072753" d="M121.04 337.75c.73.05 1.25.32 1.55 1.03q5.4 13.07 11.12 26.1a1.41 1.4 84 0 0 .99.81l31.26 7.06.33 1.75v1.5l-.32.44q-.25.34-.35.76-3.74 15.85-5.75 31.63l4.08 19.03a.54.54 0 0 1-.89.52q-2.64-2.33-5.95-4.04-12.03-6.21-24.57-11.34 4.53-4.78 10.94-6.35l14.54 1.13q1.78.14.34-.92l-23.95-17.54-18.37.43 5-52Z"/><path fill="#15467f" d="M448.43 344.18q-1.12 21.84-3.98 43.33-15.33-3.37-30.63-7.77a.73.73 0 0 0-.9.9l5.58 20.32-11 3.83h-1l-22.75-6.08-.96-.46.46-.46 29.81-19.43 35.37-34.18Z"/><path fill="#072753" d="M190.04 351.5c11.59 3.36 22.73 7.42 34.12 11.32l.63 3.68c-.45 1.4-1.29 2.28-1.47 3.75q-2.04 16-4.28 31.99c-.24 1.7-1.2 2.23-2.79 2.05l-25.01-49.9-1.2-2.89Z"/><path fill="#05152b" d="m191.24 354.39 25.01 49.9.79 3.71-1.29.46v-.41q0-.48-.43-.68l-30.25-14-2.07-1.41-.75-1.42q1.22.47 2.01-.13.41-.3.3-.8c-.31-1.38.39-2.42.57-3.43q3.02-17.31 3.55-23.49.42-4.83 2.56-8.3Zm61.01 36.32-5.07 3.04-14.98 7.13q-1.32-3.95-1.96-7.88-2.21-13.36-5.45-26.5l-.63-3.68 23.73 16.97q.46.34.77-.14.52-.82.55-1.9 1.15-9.93 3.33-19.74a.39.39 0 0 1 .77.09l-1.06 32.61Z"/><path fill="#548bbb" d="m374.96 358.5-4.01 8.93-16.2 35.11-14.29-26.79.83-1.75 2.5-1.25q14.21-6.21 28.43-12.43c1.27-.55 1.13-.77 2.03-1.61l.71-.21Z"/><path fill="#051e41" d="M224.79 366.5q3.24 13.14 5.45 26.5.64 3.93 1.96 7.88L217.04 408l-.79-3.71c1.59.18 2.55-.35 2.79-2.05q2.24-15.99 4.28-31.99c.18-1.47 1.02-2.35 1.47-3.75Z"/><path fill="#1c5998" d="m370.95 367.43 12.3 30.36-.46.46-26.45 4.64c-.13.02-.94-.07-1.09-.1l-.5-.25 16.2-35.11Z"/><path fill="#030d18" d="m182.25 390.54.75 1.42-10.04 20.54-1.67-.5-4.16-31.55c-.19-1.38.05-2.91-.84-4.45v-1.5q.14-.14.32-.2.45-.18.78.18l14.86 16.06Z"/><path fill="#0d2f54" d="m340.46 375.75 14.29 26.79.5.25q5.95 3.88 12.48 6.62c5.7 2.39 12.71 2.41 18.81 3.1a1.55 1.54 81.5 0 0 1.59-2.16c-.65-1.49-5.21-11.08-4.38-11.64l22.75 6.08c-.18.47-.47 1.12-.93 1.4q-7.8 4.77-14.78 10.58-3.86-.94-7.97-.12-12.48.71-25.88 5.79-2.99 1.13-7.19.27l.93-.86q.28-.26.05-.58c-.26-.36-.56-.68-1.01-.85q-8.44-3.1-16.56-7.17-.49-.24-.38-.77l6.46-33.19q.69-1.72.01-3.08.35-.86 1.21-.46Z"/><path fill="#051e41" d="M166.29 376c.89 1.54.65 3.07.84 4.45l4.16 31.55q.32 1.47-.58 2.09-.49.34-.99-.01-4.58-3.25-9.85-5.25 2.01-15.78 5.75-31.63.1-.42.35-.76l.32-.44Zm172.96.21q.68 1.36-.01 3.08-1.59 1.36-3.02 4.44-8.68 18.62-18.49 37.91-.59 1.14.69 1.22c.21.02 11.12-7.77 12.01-8.37q2.46-1.68 1.81 1.23-.89 3.98-2.44 7.75-.18.46-.67.51-.39.05-.63.31c-5.73-.79-9.51.44-14.04 3.96q-1.79 1.9-2.21 4.46-3.22 1.02-5.96 3.04l-.75-1.25q-3.98-14.12-6.83-28.5l1.82-1.93 38.72-27.86Z"/><path fill="#072753" d="m339.24 379.29-6.46 33.19q-.11.53.38.77 8.12 4.07 16.56 7.17c.45.17.75.49 1.01.85q.23.32-.05.58l-.93.86h-3.25c-5.73-.84-12.12 1.29-17.96 1.79l-.04-.21q.24-.26.63-.31.49-.05.67-.51 1.55-3.77 2.44-7.75.65-2.91-1.81-1.23c-.89.6-11.8 8.39-12.01 8.37q-1.28-.08-.69-1.22 9.81-19.29 18.49-37.91 1.43-3.08 3.02-4.44Z"/><path fill="#0d2f54" d="M444.45 387.51 431.29 409l-12.79-8.04-5.58-20.32a.73.73 0 0 1 .9-.9q15.3 4.4 30.63 7.77Z"/><path fill="#1c5998" d="m273.25 387.79-10.21 20.46q-1.99 1.2-3.98 2.7c-10.87 8.18-22.93 15.47-34.43 22.76q-.4.25-.58.69l-.55 1.31H220q.02-3.52-2.26-6.42-.37-.47-.78-.03l-5.81 6.22-6.04-2.09a.67.67 0 0 1-.21-1.15q7.7-6.5 13.5-15.02c2.27-2.29 4.18-4.6 6.88-6.51q11.32-7.98 21.9-16.96l5.07-3.04 21-2.92Z"/><path fill="#387dbe" d="M273.25 387.79q.13-.04.25-.08.15.03.3.04.22.02.38.15 11.35 9.32 23.35 17.77.18.12.22.33.03.13.04.25l-23.54 14.79q-6.19-5.72-11.21-12.79l10.21-20.46Z"/><path fill="#1c5998" d="m134.41 389.32-7.16 12.72c-1.72-.28-9.76-9.74-11.5-11.58l.29-.71 18.37-.43Z"/><path fill="#296fb5" d="m134.41 389.32 23.95 17.54q1.44 1.06-.34.92l-14.54-1.13-16.27-3.65.04-.96 7.16-12.72Z"/><path fill="#2266a5" d="M115.75 390.46c1.74 1.84 9.78 11.3 11.5 11.58l-.04.96-3.46-.04q.2-.65-.25-.71-9.19-1.32-16.04-3.25l8.29-8.54Z"/><path fill="#030d18" d="M215.75 408.46 201 414.54q-8.44-10.07-15.93-21.17l30.25 14q.43.2.43.68v.41Z"/><path fill="#15467f" d="M247.18 393.75q-10.58 8.98-21.9 16.96c-2.7 1.91-4.61 4.22-6.88 6.51q-10.22 5.63-18.53 13.79-.4.39-.94.27-1.52-.32-1.84-1.87-.12-.55-.63-.35c-1.37.52-2.81 1.96-4.29 1.1a.62.62 0 0 1-.05-1.03q7.51-5.57 16.16-9.16.8-.34-.01-.63c-1.57-.58-11.82 3.69-13.93 4.5-3.56 1.38-6.3 3.37-9.2 5.69a.82.82 0 0 1-1.25-.28l-.39-.79 17.5-13.92 14.75-6.08 1.29-.46 15.16-7.12 14.98-7.13Z"/><path fill="#123f72" d="m382.79 398.25.96.46c-.83.56 3.73 10.15 4.38 11.64a1.55 1.54 81.5 0 1-1.59 2.16c-6.1-.69-13.11-.71-18.81-3.1q-6.53-2.74-12.48-6.62c.15.03.96.12 1.09.1l26.45-4.64Z"/><path fill="#387dbe" d="M107.46 399q6.85 1.93 16.04 3.25.45.06.25.71l-9.72 1.32q-12.84 1.13-25.64.81l19.07-6.09Z"/><path fill="#051e41" d="m418.5 400.96 12.79 8.04-12.6 22.94q-.52.95-1.69.35-4.55-4.55-10.75-6.54c1.98-4.38.88-13.41.42-18.25q-.08-.9.83-2.71l11-3.83Z"/><path fill="#15467f" d="m123.75 402.96 3.46.04 16.27 3.65q-6.41 1.57-10.94 6.35-18.29 9.55-36.74 18.78-.71.36-1.51.22c2.03-9.58 7.72-12.6 14.25-19.16q.73-.74-.28-.5-5.04 1.16-9.54 3.4c-4.15 2.07-5.68 7.01-6.26 11.26-2.6.13-5.18-5.09-6.5-7 3-3.25 6.34-4.9 9.29-7.74q1.08-1.05-.3-.43c-3.08 1.38-5.88 3.03-9.03 4.33-4.17 1.71-7.67 11.05-8.71 14.14-.31.92-.75 1.21-1.71.91l-3.61-9.57q-.19-.51.23-.85l10.42-8.54q2.31-.9 2.71-3.04l.76-.59q.34-.27.77-.33c5.64-.81 11.92-.05 16.69-.91q5.41-.98 10.56-3.1l9.72-1.32Z"/><path fill="#2266a5" d="M114.03 404.28q-5.15 2.12-10.56 3.1c-4.77.86-11.05.1-16.69.91q-.43.06-.77.33l-.76.59c-2.34 1.86-5.25 2.29-7.37 3.41q-4.75 2.51-9.34 5.32-.41.25-.86.06l-.68-.29q10.07-7.71 21.39-12.62 12.8.32 25.64-.81Z"/><path fill="#072753" d="M406.5 404.79h1q-.91 1.81-.83 2.71c.46 4.84 1.56 13.87-.42 18.25q.02-.16.01-.31-.02-.36-.34-.52l-15.13-8.15q6.98-5.81 14.78-10.58c.46-.28.75-.93.93-1.4Z"/><path fill="#123f72" d="M298.71 406q2.85 14.38 6.83 28.5-.65 1.15-2.02.45-10.41-5.35-25.95-12.02-1.12-.48-3.82-1.22l.5-.67 23.54-14.79.92-.25Z"/><path fill="#296fb5" d="M263.04 408.25q5.02 7.07 11.21 12.79l-.5.67q-15.53 5.53-30.84 11.66-3.13 1.26-6.41 2.09l-13 .25.55-1.31q.18-.44.58-.69c11.5-7.29 23.56-14.58 34.43-22.76q1.99-1.5 3.98-2.7Z"/><path fill="#05152b" d="m171.29 412 1.67.5q-3.84 9.13-9.11 17.52-.29.46-.84.49-34.36 1.75-68.76 2.45l.04-.96q.8.14 1.51-.22 18.45-9.23 36.74-18.78 12.54 5.13 24.57 11.34 3.31 1.71 5.95 4.04a.54.54 0 0 0 .89-.52l-4.08-19.03q5.27 2 9.85 5.25.5.35.99.01.9-.62.58-2.09Z"/><path fill="#0c366e" d="M85.25 409.21q-.4 2.14-2.71 3.04-7.42 2.9-12.81 8.75c-.31.33-.36.79-.48 1.21q-3.04 3.69-5.1 8.13l-4.2-1.48q-.71-.25-.4-.94 2.64-5.98 7.45-10.21l.68.29q.45.19.86-.06 4.59-2.81 9.34-5.32c2.12-1.12 5.03-1.55 7.37-3.41Z"/><path fill="#0d2f54" d="m82.54 412.25-10.42 8.54q-.42.34-.23.85l3.61 9.57-7.35-.43a.67.67 0 0 1-.58-.93l3.11-7.4q.26-.61-.4-.69-.56-.06-1.03.45c.12-.42.17-.88.48-1.21q5.39-5.85 12.81-8.75Z"/><path fill="#072753" d="M85.96 420c-1.32 1.44-7.07 8.75-5.59 10.64a1.24 1.23 64.4 0 0 1.27.45l10.4-2.49q.48-.12.46-.61l-.04-.99c.58-4.25 2.11-9.19 6.26-11.26q4.5-2.24 9.54-3.4 1.01-.24.28.5c-6.53 6.56-12.22 9.58-14.25 19.16l-.04.96q-12.62-.61-25.25-1.21-2.16-.1-4.85-1.41 2.06-4.44 5.1-8.13.47-.51 1.03-.45.66.08.4.69l-3.11 7.4a.67.67 0 0 0 .58.93l7.35.43c.96.3 1.4.01 1.71-.91 1.04-3.09 4.54-12.43 8.71-14.14 3.15-1.3 5.95-2.95 9.03-4.33q1.38-.62.3.43c-2.95 2.84-6.29 4.49-9.29 7.74Z"/><path fill="#15467f" d="m390.79 416.77 15.13 8.15q.32.16.34.52.01.15-.01.31-10.23-.13-16.74 1.03-10.13 1.8-27.07 6.5-4.46.97-8.84.2-6.12-2.78-12.93-4.29l-2.67-.23q.47-.15.62-.44.27-.54-.3-.73l-9.78-3.29c5.84-.5 12.23-2.63 17.96-1.79l-5.27.4q-.58.05-.62.63l-.17 3a1.59 1.58 82 0 0 2.11 1.6l11.43-4.05q.59-.21.81.38l2.46 6.82q.49 1.35 1.48.3c2.68-2.86 6.15-7.66 9.81-8.88q7.41-2.47 14.28-6.26 4.11-.82 7.97.12Z"/><path fill="#1c5998" d="M382.82 416.65q-6.87 3.79-14.28 6.26c-3.66 1.22-7.13 6.02-9.81 8.88q-.99 1.05-1.48-.3l-2.46-6.82q-.22-.59-.81-.38l-11.43 4.05a1.59 1.58 82 0 1-2.11-1.6l.17-3q.04-.58.62-.63l5.27-.4h3.25q4.2.86 7.19-.27 13.4-5.08 25.88-5.79Z"/><path fill="#0c366e" d="M218.4 417.22q-5.8 8.52-13.5 15.02a.67.67 0 0 0 .21 1.15l6.04 2.09q.73-.13 1.85.23-8.48 2.21-15.44 1.15-2.84-.43-4.34-.21-.49.07-.95-.09-3.14-1.08-6.39-.71l-3.99-2.62q-.41-.27-.37-.77.21-2.37 1.98-4l.39.79a.82.82 0 0 0 1.25.28c2.9-2.32 5.64-4.31 9.2-5.69 2.11-.81 12.36-5.08 13.93-4.5q.81.29.01.63-8.65 3.59-16.16 9.16a.62.62 0 0 0 .05 1.03c1.48.86 2.92-.58 4.29-1.1q.51-.2.63.35.32 1.55 1.84 1.87.54.12.94-.27 8.31-8.16 18.53-13.79ZM85.96 420c1.32 1.91 3.9 7.13 6.5 7l.04.99q.02.49-.46.61l-10.4 2.49a1.24 1.23 64.4 0 1-1.27-.45c-1.48-1.89 4.27-9.2 5.59-10.64Z"/><path fill="#0d2f54" d="M273.75 421.71q2.7.74 3.82 1.22 15.54 6.67 25.95 12.02 1.37.7 2.02-.45l.75 1.25q-.63.71-2.54.75-33.75.66-67.5.96l.25-2q3.28-.83 6.41-2.09 15.31-6.13 30.84-11.66Z"/><path fill="#1c5998" d="m328.5 424.29.04.21 9.78 3.29q.57.19.3.73-.15.29-.62.44-5.59-.01-11.16-.44c-3.81-.29-8.12.59-12.38-.27 4.53-3.52 8.31-4.75 14.04-3.96Z"/><path fill="#030d18" d="M406.25 425.75q6.2 1.99 10.75 6.54l-54.56.99q16.94-4.7 27.07-6.5 6.51-1.16 16.74-1.03Z"/><path fill="#0d2f54" d="M314.46 428.25c4.26.86 8.57-.02 12.38.27q5.57.43 11.16.44l2.67.23-6.26 2.62q-.52.22-1.03 0c-3.52-1.53-5.66 1.4-9.33-1.44a2.47 2.46 39.8 0 0-3.35.3q-1.78 1.97-4.56 1.5-.49-.08-.65.38-.07.19.01.41l-3.25-.25q.42-2.56 2.21-4.46Z"/><path fill="#15467f" d="M220 435.71h-7q-1.12-.36-1.85-.23l5.81-6.22q.41-.44.78.03 2.28 2.9 2.26 6.42Z"/><path fill="#030d18" d="M340.67 429.19q6.81 1.51 12.93 4.29l-38.1-.52q-.08-.22-.01-.41.16-.46.65-.38 2.78.47 4.56-1.5a2.47 2.46 39.8 0 1 3.35-.3c3.67 2.84 5.81-.09 9.33 1.44q.51.22 1.03 0l6.26-2.62ZM213 435.71h10.5l13-.25-.25 2q-18.87.57-37.75.56-6.48 0-12.62-2.17 3.25-.37 6.39.71.46.16.95.09 1.5-.22 4.34.21 6.96 1.06 15.44-1.15Z"/><style>path{fill:#000}@media (prefers-color-scheme:dark){path{fill:#fff}}</style></svg>